<svg width="347" height="207" fill="none" xmlns="http://www.w3.org/2000/svg"><path d="M319.56 3.03h-61.84v111.093h61.84V3.03Z" fill="#EBEBEB"/><path d="M316.452 6.252h-56.26v104.562h56.26V6.252Z" fill="#FAFAFA"/><path d="m316.452 7.483-56.26 71.568V6.252h56.26v1.231Z" fill="#F5F5F5"/><path d="M317.673 36.334h-57.481v1.112h57.481v-1.111ZM317.673 61.23h-57.481v1.112h57.481V61.23ZM317.673 86.13h-57.481v1.112h57.481V86.13Z" fill="#EBEBEB"/><path d="M286.896 36.893v76.889h2.845V36.893h-2.845ZM272.314 6.252h-1.288v30.636h1.288V6.252ZM283.417 6.252h-1.288v30.636h1.288V6.252ZM294.525 6.252h-1.288v30.636h1.288V6.252ZM305.633 6.252h-1.287v30.636h1.287V6.252Z" fill="#EBEBEB"/><path d="M257.719 1.148h-2.616v113.663h2.616V1.148Z" fill="#F5F5F5"/><path d="m322.177 115.127-2.616-1.004V1.148h2.616v113.979Z" fill="#E0E0E0"/><path d="M322.176 0h-67.073v3.03h67.073V0ZM323.951 115.499h-70.699v2.823h70.699v-2.823Z" fill="#E0E0E0"/><path d="m319.56 114.123 4.385 1.376h-70.693l4.468-1.376h61.84ZM334.112 159.047c2.503-1.287 5.446-1.458 8.223-.998 1.489.249 3.046.693 4.059 1.816 1.014 1.122 1.21 3.102.042 4.054a3.91 3.91 0 0 1-2.56.646c-2.172-.025-4.582-.408-6.32.9-.987.745-1.649 1.986-2.834 2.353a2.798 2.798 0 0 1-3.102-1.37 4.812 4.812 0 0 1-.347-3.532 5.392 5.392 0 0 1 2.839-3.869ZM328.388 147.991c1.551 2.182 4.499 1.458 5.875.129 1.375-1.329 1.96-3.268 2.492-5.109 1.21-4.21 2.431-8.626 1.552-12.929a7.186 7.186 0 0 0-1.65-3.511 3.747 3.747 0 0 0-3.548-1.184c-1.499.398-2.43 1.867-3.102 3.263a30.72 30.72 0 0 0-3.041 13.202c0 2.131.243 4.36 1.443 6.118M324.189 151.125c1.66-1.97 1.975-4.846 1.236-7.313-.74-2.466-2.41-4.566-4.334-6.283a23.277 23.277 0 0 0-7.757-4.577 8.27 8.27 0 0 0-3.491-.589 3.683 3.683 0 0 0-2.927 1.769c-.812 1.551-.031 3.444.817 4.985a58.798 58.798 0 0 0 5.094 7.757c1.552 1.97 3.274 3.91 5.601 4.799 2.327.89 4.742.786 5.978-.827" fill="#EBEBEB"/><path d="M328.284 180.933c.077-.326.122-.658.134-.993.073-.724.161-1.629.264-2.71.103-1.081.295-2.492.61-3.971a30.909 30.909 0 0 1 1.443-4.686c.594-1.521 1.4-2.95 2.394-4.245a8.99 8.99 0 0 1 3.026-2.514 8.554 8.554 0 0 1 2.549-.796c.333-.013.664-.059.988-.14-.333-.04-.67-.04-1.003 0-.92.07-1.82.302-2.658.688a8.903 8.903 0 0 0-3.181 2.524 16.825 16.825 0 0 0-2.482 4.328 28.265 28.265 0 0 0-1.433 4.763 33.601 33.601 0 0 0-.517 4.023 49.948 49.948 0 0 0-.134 2.726c-.039.333-.039.67 0 1.003Z" fill="#E0E0E0"/><path d="M328.47 178.828a2.44 2.44 0 0 0 .026-.46v-1.319c0-1.143 0-2.797.062-4.835.098-4.085.45-8.481 1.127-14.677.647-5.828 1.51-12.608 2.42-17.014.197-1.003.393-1.908.574-2.699.181-.791.331-1.474.476-2.027.145-.554.228-.941.305-1.278a.233.233 0 0 0-.038-.462.231.231 0 0 0-.158.062.233.233 0 0 0 .119.4c-.098.331-.228.745-.383 1.262a30.588 30.588 0 0 0-.517 2.012c-.176.786-.424 1.686-.636 2.689a148.833 148.833 0 0 0-2.539 15.788c-.683 6.206-.988 11.864-1.035 15.959 0 2.043 0 3.703.068 4.846.036.517.062.967.082 1.314-.003.148.013.295.047.439Z" fill="#E0E0E0"/><path d="M328.497 167.968a8.766 8.766 0 0 0 0-1.375 38.576 38.576 0 0 0-.419-3.724 49.212 49.212 0 0 0-1.215-5.43 43.616 43.616 0 0 0-2.286-6.449 34.208 34.208 0 0 0-6.666-10.384 16.961 16.961 0 0 0-1.551-1.458c-.244-.202-.456-.404-.673-.564l-.605-.424a9.787 9.787 0 0 0-1.158-.739c-.067.087 1.639 1.096 3.796 3.387a36.039 36.039 0 0 1 6.5 10.343 50.728 50.728 0 0 1 2.281 6.366 56.152 56.152 0 0 1 1.293 5.373c.3 1.546.444 2.813.517 3.692.027.466.089.93.186 1.386ZM317.957 187.18l1.091 14.966h19.233l1.091-14.966h-21.415ZM341.668 181.279h-25.567v5.901h25.567v-5.901Z" fill="#E0E0E0"/><path d="M316.101 201.577v1.635h25.143v-1.635h-25.143Z" fill="#EBEBEB"/><path d="m318.479 206.087-1.179-2.875h23.028l-1.375 2.875h-20.474Z" fill="#E0E0E0"/><path d="M339.015 192.072a.802.802 0 0 1-.088.135l-.29.382-1.132 1.433-.052.062-.047-.062-2.741-3.817h.161l-2.71 3.832-.083.125-.098-.114-3.222-3.812h.186l-.181.223-2.87 3.62-.098.119-.088-.124-2.7-3.869h.156l-3.336 3.807-.062.067-.041-.078c-.44-.739-.792-1.329-1.035-1.753l-.263-.47a.562.562 0 0 1-.083-.166s.041.047.108.15l.3.45 1.097 1.722h-.104l3.284-3.848.083-.098.077.104c.828 1.163 1.748 2.446 2.736 3.821h-.186l2.865-3.62c.062-.077.124-.15.176-.222l.093-.114.093.114 3.206 3.832h-.181c.988-1.381 1.914-2.663 2.736-3.817l.083-.113.077.113c1.086 1.552 2.007 2.86 2.695 3.848h-.099l1.164-1.396.315-.362c.057-.068.093-.109.099-.104ZM339.641 187.103c0 .062-4.82.118-10.762.118s-10.762-.056-10.762-.118c0-.063 4.815-.125 10.762-.125s10.762.037 10.762.125ZM340.607 203.372c0 .067-5.238.119-11.698.119-6.459 0-11.692-.052-11.692-.119s5.233-.119 11.692-.119c6.46 0 11.698.052 11.698.119Z" fill="#F5F5F5"/><path d="M15.143 97.016s-3.914-.28-3.552 8.507c.362 8.786 1.256 13.472 1.256 13.472s-.119 1.949-1.623 1.551c-1.505-.398-4.35-2.28-5.756-.858-1.407 1.422-.936 3.723.993 6.381 1.929 2.658 5.942 8.631 6.304 9.174.362.543.517 1.526-.574 1.433-1.092-.093-8.275-2.544-9.247.951-.972 3.496 5.658 10.028 6.34 10.757.683.729.745 1.184.455 1.624-.29.439-2.632-.61-4.716-1.226-2.084-.615-4.608-.957-4.99 1.107-.383 2.063 2.523 8.104 13.394 14.449l5.228 2.586 4.949-3.155c10.182-7.405 12.468-13.704 11.894-15.716-.574-2.012-3.061-1.422-5.073-.605-2.012.817-4.24 2.1-4.572 1.691-.33-.409-.336-.869.295-1.66.631-.791 6.532-7.938 5.234-11.32-1.298-3.382-8.244-.228-9.309-.026-1.065.202-1.034-.802-.713-1.371.32-.568 3.692-6.893 5.342-9.717 1.65-2.823 1.944-5.135.351-6.454-1.593-1.318-4.173.905-5.637 1.433-1.463.527-1.773-1.396-1.773-1.396s.424-4.748-.099-13.529c-.522-8.781-4.478-8.083-4.478-8.083" fill="#EBEBEB"/><path d="M15.454 104.877v.186c0 .124 0 .31.041.517.037.486.083 1.184.145 2.069.12 1.799.274 4.411.45 7.638.357 6.449.776 15.364 1.21 25.211.435 9.846.828 18.767 1.148 25.221.166 3.216.295 5.828.388 7.638.047.895.078 1.593.104 2.068v.543c.003.061.003.121 0 .181v-.181c0-.119 0-.31-.042-.543-.03-.481-.077-1.179-.14-2.068-.118-1.8-.273-4.411-.454-7.638-.337-6.403-.755-15.334-1.185-25.159-.429-9.826-.827-18.762-1.148-25.216-.165-3.217-.3-5.829-.388-7.639-.046-.899-.082-1.597-.103-2.068v-.543l-.026-.217Z" fill="#E0E0E0"/><path d="M9.336 122.516c.12.075.23.165.326.269.201.181.48.455.827.797a86.406 86.406 0 0 1 2.622 2.741l2.586 2.797.776.849c.105.094.197.202.274.32a1.543 1.543 0 0 1-.326-.269 20.21 20.21 0 0 1-.828-.801 94.706 94.706 0 0 1-2.585-2.757c-.988-1.086-1.888-2.032-2.586-2.782l-.786-.838a1.753 1.753 0 0 1-.3-.326ZM17.238 130.118c-.036-.041 1.877-2.042 4.271-4.473 2.395-2.43 4.375-4.37 4.417-4.333.041.036-1.872 2.068-4.272 4.473-2.4 2.405-4.375 4.37-4.416 4.333ZM17.218 145.271c.113-.09.236-.166.367-.228l1.034-.574c.859-.486 2.069-1.163 3.336-1.949s2.43-1.552 3.253-2.095l.977-.651c.115-.087.24-.16.372-.218-.099.105-.208.201-.325.285-.223.17-.518.413-.942.703a53.848 53.848 0 0 1-3.232 2.146 53.804 53.804 0 0 1-3.377 1.903c-.44.223-.801.404-1.034.517-.135.073-.28.127-.43.161ZM8.556 139.97c.127.041.249.098.362.171.227.119.548.3.946.517.796.45 1.888 1.086 3.103 1.8 1.215.713 2.28 1.37 3.056 1.856.393.238.704.44.916.579.118.065.227.145.325.238a1.606 1.606 0 0 1-.362-.17c-.227-.119-.553-.3-.951-.518-.797-.45-1.888-1.086-3.103-1.799a139.442 139.442 0 0 1-3.062-1.857l-.915-.579a1.903 1.903 0 0 1-.315-.238ZM6.838 153.343c.16.063.313.139.46.228l1.215.667c1.035.574 2.431 1.381 3.977 2.281 1.546.899 2.943 1.727 3.951 2.332l1.184.729c.151.08.292.177.42.29a2.63 2.63 0 0 1-.46-.223l-1.227-.672a246.938 246.938 0 0 1-3.976-2.281 343.708 343.708 0 0 1-3.951-2.332l-1.185-.724a1.876 1.876 0 0 1-.408-.295ZM17.822 159.637c.143-.114.295-.216.455-.305l1.272-.776c1.071-.651 2.55-1.551 4.138-2.586a155.291 155.291 0 0 0 4.07-2.746l1.22-.848c.145-.114.3-.213.465-.294-.129.13-.27.249-.418.356-.274.218-.678.518-1.185.9a91.821 91.821 0 0 1-4.044 2.798 123.936 123.936 0 0 1-4.194 2.586c-.517.31-.988.558-1.303.719a3.122 3.122 0 0 1-.476.196ZM25.683 168.661h-14.47l4.721 35.745h5.027l4.722-35.745Z" fill="#E0E0E0"/><path d="M11.963 173.057s0 .052.078.124a.922.922 0 0 0 .351.253 1.734 1.734 0 0 0 1.552-.191c.584-.321 1.09-.951 1.877-1.231a4.09 4.09 0 0 1 2.658.052c.871.298 1.703.701 2.477 1.2.648.404 1.322.765 2.017 1.081.472.212.972.356 1.484.429.139.02.279.03.419.031h.15a7.556 7.556 0 0 1-2.012-.631 18.785 18.785 0 0 1-1.97-1.112 10.96 10.96 0 0 0-2.519-1.241 4.252 4.252 0 0 0-2.808-.031 3.73 3.73 0 0 0-1.06.657c-.263.23-.539.444-.827.641a1.686 1.686 0 0 1-1.407.243 1.45 1.45 0 0 1-.46-.274ZM12.49 179.64s.114-.15.341-.383a3.202 3.202 0 0 1 1.159-.734 5.237 5.237 0 0 1 2.012-.305c.845.065 1.686.181 2.518.346.852.166 1.724.2 2.586.104a6.826 6.826 0 0 0 2.027-.579 6.49 6.49 0 0 0 1.22-.724c.146-.096.277-.213.388-.347a14.2 14.2 0 0 1-1.66.921 7.536 7.536 0 0 1-1.986.517 8.977 8.977 0 0 1-2.513-.124 18.86 18.86 0 0 0-2.55-.331 5.12 5.12 0 0 0-2.068.367 3.004 3.004 0 0 0-1.164.827 1.851 1.851 0 0 0-.217.321c-.082.078-.098.119-.093.124ZM24.043 183.162a1.332 1.332 0 0 0-.398-.207 4.4 4.4 0 0 0-1.2-.253 7.562 7.562 0 0 0-1.815.103c-.672.109-1.396.295-2.156.455a8.998 8.998 0 0 1-2.157.243 4.64 4.64 0 0 1-1.707-.367 3.936 3.936 0 0 1-1.297-.967c.054.141.136.27.243.377.274.311.608.562.982.74a4.64 4.64 0 0 0 1.774.434 8.773 8.773 0 0 0 2.208-.227c.77-.166 1.49-.357 2.146-.476a8.328 8.328 0 0 1 1.769-.15 6.872 6.872 0 0 1 1.608.295ZM13.773 188.137c.443-.19.934-.239 1.406-.14.51.123 1.003.307 1.469.548.6.285 1.246.46 1.908.518a5.698 5.698 0 0 0 3.46-.802c.313-.186.602-.408.863-.662.176-.186.27-.295.254-.305-.383.298-.784.572-1.2.822a5.943 5.943 0 0 1-3.356.714c-1.37-.078-2.42-.895-3.372-1.003a2.1 2.1 0 0 0-1.091.093.746.746 0 0 0-.341.217ZM14.574 194.984c.417.008.83-.075 1.21-.243.724-.243 1.624-.797 2.68-1.216a4.281 4.281 0 0 1 1.55-.32c.428-.002.851.094 1.237.279.35.19.654.453.894.771a.682.682 0 0 0-.14-.305 1.903 1.903 0 0 0-.677-.611 2.801 2.801 0 0 0-1.313-.357 4.452 4.452 0 0 0-1.624.321c-1.086.434-1.96 1.009-2.653 1.283-.693.274-1.169.356-1.164.398ZM15.283 198.175c.291.143.601.244.92.3a16.995 16.995 0 0 0 4.608.449c.323.011.646-.028.957-.113 0-.073-1.463 0-3.253-.187-1.789-.186-3.19-.517-3.232-.449Z" fill="#F5F5F5"/><path d="M344.988 205.394c0 .072-77.235.134-172.482.134-95.248 0-172.504-.062-172.504-.134 0-.073 77.22-.14 172.504-.14 95.283 0 172.482.062 172.482.14Z" fill="#263238"/><path d="M73.462 153.643h-3.78v45.318h3.78v-45.318ZM97.98 153.643h-54.1a5.875 5.875 0 0 1 5.87-5.874h42.36a5.875 5.875 0 0 1 5.87 5.874Z" fill="#455A64"/><path d="M74.894 153.757c-1.1.139-2.211.186-3.32.14-1.109.046-2.22 0-3.32-.14 1.1-.14 2.211-.186 3.32-.14 1.109-.046 2.22.001 3.32.14Z" fill="#263238"/><path d="M88.118 203.067H87.6a16.1 16.1 0 0 0-32.193 0h-.517a16.626 16.626 0 0 1 4.766-11.949 16.638 16.638 0 0 1 11.863-4.976 16.635 16.635 0 0 1 15.448 10.471 16.628 16.628 0 0 1 1.18 6.454h-.03Z" fill="#455A64"/><path d="M57.622 202.767a2.5 2.5 0 0 1-4.264 1.766 2.495 2.495 0 0 1-.542-2.722 2.498 2.498 0 0 1 4.806.956Z" fill="#263238"/><path d="M90.45 202.881a2.49 2.49 0 0 1-2.979 2.444 2.488 2.488 0 0 1-1.958-1.958 2.492 2.492 0 1 1 4.937-.486ZM87.957 198.961c0 .077-7.24.139-16.16.139-8.921 0-16.161-.062-16.161-.139 0-.078 7.24-.14 16.16-.14 8.921 0 16.161.062 16.161.14ZM42.65 108.776v33.361a7.914 7.914 0 0 0 4.887 7.319c.96.399 1.99.604 3.03.604h25.708l-3.49-41.284a3.535 3.535 0 0 0-2.181-3.263 3.523 3.523 0 0 0-1.352-.269H46.177a3.52 3.52 0 0 0-2.495 1.035 3.52 3.52 0 0 0-1.032 2.497Z" fill="#455A64"/><path d="M51.737 147.769a1.891 1.891 0 0 1-.29-.316 10.478 10.478 0 0 1-.74-.967 15.543 15.543 0 0 1-2.006-4.013c-.327-.985-.557-2-.688-3.03a28.365 28.365 0 0 1-.108-3.538v-8.134c0-5.761.031-10.974.041-14.78 0-1.872.031-3.398.042-4.479v-1.22a2.068 2.068 0 0 1 .026-.424c.023.14.031.282.025.424v1.22c0 1.081.026 2.586.042 4.479 0 3.806 0 9.019.041 14.78v8.134c-.036 1.179 0 2.358.109 3.532a16.191 16.191 0 0 0 2.585 7.013c.29.439.518.776.699.998.18.222.227.315.222.321Z" fill="#263238"/><path d="M65.73 147.67a5.32 5.32 0 0 1-.817.057l-2.224.057c-1.882.041-4.478.073-7.348.093l-4.044.026a13.819 13.819 0 0 0-3.258.295 5.365 5.365 0 0 0-1.966.941c-.419.31-.605.543-.625.517-.021-.026.036-.062.129-.17.13-.156.273-.3.43-.43a5.085 5.085 0 0 1 1.985-1.034c1.08-.259 2.189-.38 3.3-.362 1.24-.031 2.585-.031 4.043-.047h7.354l2.23.026a4.32 4.32 0 0 1 .811.031Z" fill="#263238"/><path d="m123.025 91.302-2.508 2.585-5.022-5.347 1.67-2.86c.088-.367.181-.775.269-1.236a4.989 4.989 0 0 0 .031-1.644 7.67 7.67 0 0 0-.517-1.98c-.289-.554.228-1.18.729-.926.502.253 1.34 1.758 1.454 3.78.113 2.022 1.934-.553 2.585-1.48.652-.925 2.902-3.686 3.346-3.697.652 0 .791.693.093 1.603-.698.91-2.585 3.786-2.099 4.138a2.45 2.45 0 0 1 2.482 1.396c.429.91.9 2.198.455 2.756a32 32 0 0 1-2.968 2.912Z" fill="#B78876"/><path d="m115.496 88.525-18.033 14.847 7.24 10.115 15.814-19.61-5.021-5.352Z" fill="#B78876"/><path d="M124.799 84.656c-.263.365-.563.701-.895 1.004l-1.034 1.034-.611.6a1.26 1.26 0 0 1-.899.45.63.63 0 0 1-.518-.285.856.856 0 0 1-.129-.517c.046-.317.195-.61.424-.832.325-.365.67-.71 1.034-1.035a4.918 4.918 0 0 1 1.092-.801c-.302.332-.623.647-.962.94-.295.29-.636.647-.993 1.035a1.24 1.24 0 0 0-.347.683.453.453 0 0 0 .378.517 1.09 1.09 0 0 0 .703-.372l.621-.595 1.07-.998a6.39 6.39 0 0 1 1.066-.828Z" fill="#AA6550"/><path d="M125.476 85.96c-.251.355-.54.68-.864.972l-.987 1.003c-.192.186-.373.383-.605.584a1.593 1.593 0 0 1-.409.249.701.701 0 0 1-.543 0 .78.78 0 0 1-.383-.916c.09-.286.252-.544.471-.75.326-.347.671-.675 1.034-.982a4.585 4.585 0 0 1 1.035-.77c-.288.322-.595.626-.921.91-.284.279-.62.615-.967 1.034a1.626 1.626 0 0 0-.398.646.516.516 0 0 0 .238.605c.207.099.47-.041.677-.212.207-.17.404-.377.595-.558l1.034-.957c.299-.32.632-.609.993-.858Z" fill="#AA6550"/><path d="M126.17 87.196c-.24.34-.515.654-.823.936l-.946.962c-.187.2-.393.381-.615.543a.961.961 0 0 1-.45.17.64.64 0 0 1-.517-.18.864.864 0 0 1-.145-.942 2.29 2.29 0 0 1 .517-.678c.31-.33.638-.642.983-.936a4.293 4.293 0 0 1 1.034-.734 8.704 8.704 0 0 1-.885.874c-.274.264-.594.59-.93.967-.178.176-.325.38-.435.605a.61.61 0 0 0 .093.652.488.488 0 0 0 .621 0 3.8 3.8 0 0 0 .579-.517l.988-.916c.28-.301.592-.572.931-.806ZM120.444 90.314c.023-.254.064-.507.124-.755.075-.6.013-1.21-.181-1.784a3.978 3.978 0 0 0-.972-1.51c-.336-.326-.59-.481-.569-.517.261.06.5.191.693.377.506.403.887.941 1.101 1.552.215.613.255 1.273.114 1.908-.114.486-.279.745-.31.729Z" fill="#AA6550"/><path d="m84.787 105.327 2.69 27.015-33.18.719.18-21.746-2.399-18.751c1.552-8.792 13.87-9.376 13.87-9.376l9.655-.155a17.003 17.003 0 0 1 9.495 2.104s9.826 5.337 9.707 18.886" fill="#EE4248"/><path d="M54.627 87.997c-2.896 2.767-5.689 8.321-4.654 19.45l15.431-.636-.434-15.225a5.173 5.173 0 0 0-1.991-3.93 6.45 6.45 0 0 0-8.352.341Z" fill="#EE4248"/><path d="M86.897 128.474a1.491 1.491 0 0 1-.274.207 4.587 4.587 0 0 1-.9.419 7.025 7.025 0 0 1-3.62.139c-1.52-.274-3.206-1.034-5.14-1.551a17.236 17.236 0 0 0-6.464-.403c-2.312.268-4.37 1.122-6.252 1.851a19.503 19.503 0 0 1-5.172 1.448 8.538 8.538 0 0 1-3.62-.352 6.055 6.055 0 0 1-.9-.408 1.382 1.382 0 0 1-.29-.186s.414.232 1.226.517a8.694 8.694 0 0 0 3.548.263 19.832 19.832 0 0 0 5.11-1.484c1.866-.744 3.955-1.618 6.303-1.893a17.305 17.305 0 0 1 6.563.43c.987.258 1.887.6 2.736.894.777.285 1.571.52 2.378.704a7.201 7.201 0 0 0 3.543-.052 6.961 6.961 0 0 0 1.225-.543Z" fill="#FAFAFA"/><path opacity=".2" d="m54.332 128.283.135.103a12.25 12.25 0 0 0 12.83 1.236c1.551-.802 2.942-1.95 4.602-2.518 2.353-.802 4.929-.337 7.385.056 2.457.393 5.389.657 7.613-.46l-.29-3.408-32.192.838" fill="#000"/><path d="m86.954 203.486-.078-3.227-8.63.294.05 5.043.518.036c2.369.134 12.07.517 13.658.046 1.789-.532-5.518-2.192-5.518-2.192Z" fill="#EE4248"/><path opacity=".5" d="M81.415 205.534a3.066 3.066 0 0 0-1.034-1.893 2.504 2.504 0 0 0-2.105-.579l.031 2.409 3.108.063Z" fill="#fff"/><path opacity=".5" d="M90.522 204.422s2.586.744 2.24 1.163c-.347.419-10.137.398-14.48 0v-.191l11.454.124s.29-1.076.786-1.096Z" fill="#fff"/><path d="M78.173 205.394h.574l1.551.072c1.319.047 3.144.093 5.172.104 2.027.01 3.842-.031 5.171-.073l1.552-.062h.574a.75.75 0 0 0-.15 0H90.64c-1.324 0-3.144.047-5.171.036-2.028-.01-3.838-.041-5.172-.072l-1.551-.036h-.574v.031Z" fill="#263238"/><path d="M89.757 205.663c.07-.259.168-.509.295-.745.151-.217.324-.418.517-.6a1.4 1.4 0 0 0-.827 1.345h.015ZM87.208 204.37c.026 0 .15-.134.274-.331.124-.197.207-.367.181-.383-.026-.015-.145.13-.269.326a1.035 1.035 0 0 0-.186.388ZM86.53 203.998s.155-.068.305-.202c.15-.135.254-.259.233-.279-.02-.021-.155.072-.305.201-.15.13-.254.259-.233.28ZM86.09 203.186c.297.069.605.069.9 0a1.11 1.11 0 0 0-.45-.057.933.933 0 0 0-.45.057ZM85.94 202.617a.912.912 0 0 0 .518.15.918.918 0 0 0 .517-.067 2.49 2.49 0 0 0-.517-.037 3.32 3.32 0 0 0-.518-.046Z" fill="#263238"/><path d="M87.518 203.62c.183.031.37.031.553 0 .2-.021.398-.063.59-.124a1.78 1.78 0 0 0 .336-.14.285.285 0 0 0 .134-.17.22.22 0 0 0-.083-.223 1.033 1.033 0 0 0-1.432.662.368.368 0 0 0 0 .15c.056-.17.142-.33.253-.47a.949.949 0 0 1 .47-.306.874.874 0 0 1 .663.047c.088.062.052.166-.047.222a1.356 1.356 0 0 1-.31.135 3.478 3.478 0 0 1-.569.145c-.352.057-.558.051-.558.072Z" fill="#263238"/><path d="M87.663 203.651a.57.57 0 0 0 .062-.383.841.841 0 0 0-.15-.403.554.554 0 0 0-.46-.284.228.228 0 0 0-.171.253.668.668 0 0 0 .093.248c.072.124.16.237.264.336a.753.753 0 0 0 .315.223s-.109-.098-.264-.274a2.082 2.082 0 0 1-.227-.331c-.078-.119-.13-.326 0-.352.129-.026.279.124.362.238.077.106.13.228.155.357.016.123.023.248.02.372ZM78.355 203.046c.211-.012.424-.012.636 0a2.688 2.688 0 0 1 2.25 1.8c.128.372.139.62.16.615a.491.491 0 0 0 0-.171 2.067 2.067 0 0 0-.094-.465 2.617 2.617 0 0 0-.868-1.282 2.64 2.64 0 0 0-1.438-.569 2.225 2.225 0 0 0-.476 0c-.108.046-.17.062-.17.072ZM82.496 204.685a5.06 5.06 0 0 0 1.257.13c.421.022.844-.011 1.256-.099 0-.031-.563 0-1.256 0-.693 0-1.252-.031-1.257-.031Z" fill="#263238"/><path d="M80.81 204.685s.047.119.104.249c.057.129.088.243.119.243.03 0 .046-.14 0-.285a.338.338 0 0 0-.222-.207ZM80.18 203.899s.036.109.124.197c.088.088.176.15.196.129.021-.021-.036-.108-.124-.202-.088-.093-.176-.144-.196-.124ZM79.27 203.532c0 .031.124.031.248.078.124.046.217.108.238.093.02-.016-.047-.14-.207-.192-.16-.051-.285-.005-.28.021ZM78.623 203.362c0 .025.041.072.114.098.072.026.134.031.145 0 .01-.031-.037-.073-.109-.098-.072-.026-.14-.026-.15 0Z" fill="#263238"/><path opacity=".3" d="m78.266 202.575 8.677-.362v-.351h-8.698l.02.713Z" fill="#000"/><path d="m115.252 203.025-.083-3.304-8.827.31.052 5.172.517.036c2.43.139 12.359.517 13.963.051 1.851-.568-5.622-2.265-5.622-2.265Z" fill="#EE4248"/><path opacity=".5" d="M109.579 205.12a3.102 3.102 0 0 0-1.065-1.934 2.553 2.553 0 0 0-2.172-.569l.031 2.467 3.206.036Z" fill="#fff"/><path opacity=".5" d="M118.904 203.987s2.616.76 2.29 1.19c-.325.429-10.373.408-14.805 0v-.197l11.723.129s.28-1.101.792-1.122Z" fill="#fff"/><path d="M106.264 204.98h.15l.434.031 1.598.073c1.355.051 3.222.098 5.285.103a167.05 167.05 0 0 0 5.28-.067l1.598-.062.435-.026h.155-.59l-1.598.031c-1.355 0-3.222.046-5.28.041a222.68 222.68 0 0 1-5.28-.077l-1.603-.036h-.434l-.15-.011Z" fill="#263238"/><path d="M118.117 205.254c.075-.264.177-.521.305-.765.157-.223.339-.428.543-.61a1.439 1.439 0 0 0-.848 1.375ZM115.526 203.93c.026 0 .15-.134.279-.336.13-.201.212-.382.187-.398-.026-.015-.15.14-.28.341-.129.202-.212.378-.186.393ZM114.813 203.553s.16-.073.31-.207.259-.264.243-.29c-.015-.025-.16.073-.31.207-.15.135-.264.264-.243.29ZM114.368 202.72c.146.053.301.072.455.057.155.021.313.005.461-.046a1.026 1.026 0 0 0-.456-.057.998.998 0 0 0-.46.046ZM114.213 202.131a.879.879 0 0 0 .517.15.893.893 0 0 0 .517-.068 2.635 2.635 0 0 0-.517-.036 3.449 3.449 0 0 0-.517-.046Z" fill="#263238"/><path d="M115.826 203.16c.186.036.378.036.564 0 .205-.026.407-.069.605-.129.121-.035.237-.084.346-.145.065-.04.114-.1.14-.171a.221.221 0 0 0-.088-.227 1.031 1.031 0 0 0-1.282.299 1.038 1.038 0 0 0-.187.378.379.379 0 0 0 0 .15c.061-.173.148-.335.259-.481a.995.995 0 0 1 .486-.31.84.84 0 0 1 .672.046c.093.068.057.171-.046.233a2.14 2.14 0 0 1-.316.134 4.204 4.204 0 0 1-.584.15c-.352.047-.569.047-.569.073Z" fill="#263238"/><path d="M115.971 203.191a.536.536 0 0 0 .067-.393.852.852 0 0 0-.155-.414.561.561 0 0 0-.465-.29.215.215 0 0 0-.081.034.204.204 0 0 0-.062.062.215.215 0 0 0-.033.168.593.593 0 0 0 .093.248c.074.127.164.244.269.347.087.1.197.178.321.228 0 0-.114-.099-.269-.28a2.035 2.035 0 0 1-.233-.341c-.078-.119-.129-.336 0-.362.129-.026.284.129.372.243.08.109.134.235.161.367.019.127.024.255.015.383ZM106.45 202.575c.216-.011.432-.011.647 0a2.882 2.882 0 0 1 1.417.59c.405.329.711.764.884 1.257.135.377.145.631.166.625a.514.514 0 0 0 0-.175 2.265 2.265 0 0 0-.093-.476 2.677 2.677 0 0 0-2.364-1.893 2.322 2.322 0 0 0-.486 0c-.114.047-.176.062-.171.072ZM110.686 204.267a5.06 5.06 0 0 0 1.287.129 5.2 5.2 0 0 0 1.288-.098c0-.032-.579 0-1.288 0-.708 0-1.282-.063-1.287-.031Z" fill="#263238"/><path d="M108.964 204.256c0 .026.046.124.103.259.057.134.093.248.119.243.026-.005.047-.14 0-.29-.046-.15-.207-.232-.222-.212ZM108.312 203.449s.036.109.129.202c.093.093.181.15.201.135.021-.016-.036-.114-.124-.207-.088-.093-.181-.15-.206-.13ZM107.376 203.077c0 .031.124.026.253.072.13.047.223.114.243.099.021-.016-.051-.145-.212-.197-.16-.051-.284-.005-.284.026ZM106.725 202.901c0 .026.041.073.113.099.073.025.14.031.15 0 .011-.032-.041-.073-.113-.104-.073-.031-.14-.026-.15.005Z" fill="#263238"/><path opacity=".3" d="m106.358 202.095 8.879-.373v-.362h-8.9l.021.735Z" fill="#000"/><path d="m107.857 132.658-35.254-.445 7.365 16.574 20.22.156a2.552 2.552 0 0 1 2.534 2.446l2.172 50.68 13.637-1.035-1.381-58.033a10.698 10.698 0 0 0-9.308-10.343h.015Z" fill="#263238"/><path d="m74.357 150.142 1.5 52.361 16.91-1.205s-.936-49.387-2.198-62.947c-.869-9.277-36.272-5.29-36.272-5.29-.517 18.478 20.06 17.066 20.06 17.066" fill="#263238"/><path d="M74.154 146.046c.276 1.558.366 3.143.27 4.722a9.981 9.981 0 0 1-.275-2.353c-.09-.787-.088-1.582.005-2.369ZM73.54 132.311c.099-.013.2-.013.299 0h.864c.75 0 1.83.057 3.17.135 1.34.077 2.932.191 4.69.455 1.932.261 3.785.933 5.435 1.97.431.293.822.641 1.164 1.034.335.382.593.824.76 1.304.285.892.474 1.813.564 2.746.145 1.566.21 3.138.191 4.711V148.699c.011.1.011.201 0 .3a1.184 1.184 0 0 1-.046-.3c0-.196-.042-.486-.057-.858-.042-.75-.067-1.836-.093-3.175-.026-1.34-.052-2.932-.254-4.68a13.334 13.334 0 0 0-.558-2.684 4.52 4.52 0 0 0-1.83-2.183 13.775 13.775 0 0 0-5.317-1.924c-1.743-.274-3.33-.413-4.654-.517l-3.16-.222-.864-.072a2.12 2.12 0 0 1-.305-.073Z" fill="#455A64"/><path d="M49.942 107.462c.09.012.18.012.27 0h.77l2.834-.103c2.394-.103 5.688-.259 9.345-.445l1.872-.098h.124v-.124c0-3.196-.036-6.02-.047-8.093 0-.988-.026-1.795-.036-2.395v-.646a.973.973 0 0 0 0-.228.611.611 0 0 0-.026.228v.646c0 .6-.026 1.407-.041 2.395 0 2.068-.026 4.897-.042 8.093l.12-.129-1.867.093c-3.652.191-6.951.377-9.345.517l-2.83.191-.764.062a.91.91 0 0 0-.337.036ZM57.105 85.556a9.39 9.39 0 0 1 1.8-.057 6.387 6.387 0 0 1 3.816 1.831 7.544 7.544 0 0 1 1.96 3.79c.222 1.097.175 1.8.227 1.8.042-.16.06-.326.052-.49a6.924 6.924 0 0 0-.098-1.34 7.317 7.317 0 0 0-1.955-3.946 6.272 6.272 0 0 0-3.987-1.83c-.45-.032-.903 0-1.345.092-.165.021-.324.072-.47.15ZM84.803 93.34c-.077.481-.109.97-.093 1.458v3.563c0 1.39.057 2.508.078 3.485v1.35-1.551c0-.978.046-2.172.077-3.491s0-2.529 0-3.408c.022-.47.001-.94-.062-1.407Z" fill="#263238"/><path d="m51.736 107.462.367 15.215a5.785 5.785 0 0 0 4.527 5.338 5.79 5.79 0 0 0 2.486.004l22.997-6.361 1.728-8.507-21.508 4.137-.274-10.343-10.323.517Z" fill="#B78876"/><path d="M59.902 120.996a1.354 1.354 0 0 1-.073-.729c.044-.598.24-1.175.57-1.676a3.58 3.58 0 0 1 1.313-1.189c.408-.207.688-.248.698-.217a4.397 4.397 0 0 0-2.508 3.811Z" fill="#AA6550"/><path d="M64.763 97.249v.18a3.672 3.672 0 0 1-.134.518 4.417 4.417 0 0 1-1.035 1.65 4.55 4.55 0 0 1-2.585 1.324 7.655 7.655 0 0 1-3.501-.518 13.201 13.201 0 0 0-3.362-.858 4.653 4.653 0 0 0-2.684.662c-.549.324-1.03.75-1.417 1.257-.274.362-.388.589-.408.574-.021-.016 0-.062.062-.171.074-.163.162-.319.264-.465a4.6 4.6 0 0 1 1.4-1.355 4.734 4.734 0 0 1 2.794-.75c1.178.122 2.333.408 3.433.848a7.66 7.66 0 0 0 3.382.517 4.48 4.48 0 0 0 2.472-1.215c.461-.44.829-.967 1.081-1.552.16-.403.212-.651.238-.646ZM63.32 87.811c-.07.128-.16.243-.268.341-.269.29-.565.553-.885.786a7.597 7.597 0 0 1-7.452.941 6.28 6.28 0 0 1-1.034-.548 1.196 1.196 0 0 1-.341-.269c.026-.04.517.306 1.458.642a8.005 8.005 0 0 0 7.276-.895c.797-.558 1.21-.998 1.247-.998ZM92.07 93.5a4.446 4.446 0 0 0-.813-.792 4.51 4.51 0 0 0-2.927-.74c-1.308.073-2.751.766-4.21 1.707-.734.46-1.494.983-2.332 1.448a8.958 8.958 0 0 1-2.782 1.06 5.688 5.688 0 0 1-2.963-.279 13.924 13.924 0 0 1-2.467-1.24c-1.484-.916-2.86-1.713-4.137-1.914a4.282 4.282 0 0 0-2.963.517c-.316.21-.6.464-.843.755 0 0 .041-.093.155-.254.18-.227.392-.426.63-.59a4.261 4.261 0 0 1 3.052-.61c1.35.182 2.767.988 4.25 1.888.773.476 1.586.879 2.431 1.205a5.457 5.457 0 0 0 2.835.264 8.872 8.872 0 0 0 2.694-1.034c.827-.455 1.582-.973 2.332-1.433 1.474-.936 2.963-1.634 4.329-1.686a4.536 4.536 0 0 1 2.999.843c.23.176.432.385.6.62.056.082.1.17.13.264ZM84.802 85.329c-.325.269-.692.484-1.086.636a9.826 9.826 0 0 1-5.983.651 3.962 3.962 0 0 1-1.2-.388c1.386.28 2.805.369 4.215.264a15.667 15.667 0 0 0 4.054-1.163ZM80.542 108.342s-.207-.181-.62-.43a4.284 4.284 0 0 0-1.945-.548 6.912 6.912 0 0 0-2.948.574c-1.07.414-2.177 1.034-3.429 1.552a12.235 12.235 0 0 1-6.759.863 7.59 7.59 0 0 1-1.985-.646 4.569 4.569 0 0 1-.518-.274c-.108-.067-.165-.104-.16-.114.853.391 1.75.675 2.674.843 2.252.298 4.543-.02 6.63-.921 1.225-.517 2.342-1.132 3.439-1.551a6.842 6.842 0 0 1 3.05-.517c.712.039 1.4.264 1.997.651.159.105.306.226.44.362.077.094.139.15.134.156Z" fill="#FAFAFA"/><path d="M72.21 89.75a5.503 5.503 0 0 0 5.508-5.559c0-1.913-.052-3.568-.052-3.568s4.421-.409 4.747-4.784c.326-4.375.186-14.48.186-14.48a15.26 15.26 0 0 0-15.416.983l-.677.46.207 21.513a5.508 5.508 0 0 0 5.497 5.435Z" fill="#B78876"/><path d="M77.676 80.571a10.163 10.163 0 0 1-5.606-1.975s1.154 3.237 5.55 3.102l.056-1.127Z" fill="#AA6550"/><path d="M67.634 67.642c-.078-.025-2.767-.377-2.514 2.798.254 3.175 3.377 1.872 3.377 1.78 0-.094-.863-4.578-.863-4.578Z" fill="#B78876"/><path d="M67.431 71.159s-.051.046-.14.098a.58.58 0 0 1-.413.042 1.381 1.381 0 0 1-.734-1.18 1.867 1.867 0 0 1 .093-.806.636.636 0 0 1 .383-.455.274.274 0 0 1 .336.124c.051.082.036.15.051.155.016.005.068-.062.031-.191a.378.378 0 0 0-.14-.187.429.429 0 0 0-.315-.056.781.781 0 0 0-.517.517 1.845 1.845 0 0 0-.119.9 1.427 1.427 0 0 0 .915 1.308.584.584 0 0 0 .518-.124c.051-.042.062-.14.051-.145Z" fill="#AA6550"/><path d="M82.63 62.099c1.082-.264 1.47-1.883 1.433-2.995a3.103 3.103 0 0 0-1.825-2.585 3.983 3.983 0 0 0-3.243.051 3.501 3.501 0 0 0-6.914.192c-.103-.843-1.06-1.319-1.913-1.37a2.794 2.794 0 0 0-2.307.847 1.717 1.717 0 0 0 0 2.307 3.904 3.904 0 0 0-2.72.651 2.881 2.881 0 0 0-1.21 2.457 2.291 2.291 0 0 0 1.712 2.068c.32.068.403-.15.573.13.094.295.136.605.125.915-.061 1.004 0 2.01.18 3a1.215 1.215 0 0 1 1.552.682c.22.584.28 1.216.176 1.83.269.41.946.285 1.241-.103.252-.42.365-.908.32-1.396l.063-5.068a1.727 1.727 0 0 0 1.634 0 1.7 1.7 0 0 0 .858-1.386 3.343 3.343 0 0 0 5.172-.626 7.88 7.88 0 0 0 1.665 1.102c.604.3 1.298.36 1.945.17.63-.217 1.52-.165 1.51-.837M81.446 68.35a.616.616 0 0 1-.594.621.585.585 0 0 1-.631-.553.615.615 0 0 1 .59-.62.597.597 0 0 1 .635.553ZM81.58 67.642c-.077.078-.542-.263-1.204-.263-.662 0-1.143.33-1.216.253-.072-.078.042-.181.254-.336a1.68 1.68 0 0 1 .972-.3c.344-.003.68.106.957.31.207.176.274.336.238.336ZM74.977 68.506a.616.616 0 0 1-.595.62.585.585 0 0 1-.62-.553.61.61 0 0 1 1.215-.067Z" fill="#263238"/><path d="M75.086 67.787c-.078.078-.543-.264-1.205-.264s-1.143.331-1.216.249c-.072-.083.042-.176.254-.331.285-.198.625-.303.972-.3.344-.003.68.106.957.31.207.155.274.3.238.336ZM77.48 72.684c.35-.107.71-.171 1.075-.19.171 0 .326-.052.357-.166a.843.843 0 0 0-.114-.517 35.238 35.238 0 0 0-.517-1.288 22.354 22.354 0 0 1-1.122-3.356 21.959 21.959 0 0 1 1.391 3.258c.166.455.326.884.476 1.293.102.204.133.437.088.661a.43.43 0 0 1-.28.249 1.248 1.248 0 0 1-.284.041c-.355.05-.714.055-1.07.016ZM75.536 73.14c.109 0 .114.713.724 1.22s1.381.434 1.386.517c.005.083-.17.14-.517.15a1.8 1.8 0 0 1-1.153-.403 1.551 1.551 0 0 1-.559-1.034c-.005-.26.073-.45.12-.45ZM75.256 65.196c-.067.181-.724.093-1.5.186-.775.093-1.4.306-1.504.145-.047-.077.062-.243.315-.419.335-.219.719-.354 1.117-.393.395-.045.796.003 1.169.14.29.114.43.253.403.341ZM81.338 65.75c-.118.15-.574 0-1.122 0-.548 0-1.008.098-1.117-.057-.108-.155.026-.228.228-.373.272-.17.589-.256.91-.243.322.005.635.11.895.3.19.145.258.3.206.373Z" fill="#263238"/><path d="M63.667 61.178c.033.17.104.33.207.47.338.368.79.61 1.282.688.762.21 1.562.242 2.338.094a2.76 2.76 0 0 0 1.262-.683 1.463 1.463 0 0 0 .475-1.417.693.693 0 0 0-.594-.455.471.471 0 0 0-.517.445 1.603 1.603 0 0 0 1.034 1.422 2.478 2.478 0 0 0 1.986 0 4.09 4.09 0 0 0 1.686-1.365 1.95 1.95 0 0 0 .398-1.035.775.775 0 0 0-.559-.786.993.993 0 0 0-.998.264 1.277 1.277 0 0 0-.28 1.06 2.162 2.162 0 0 0 1.677 1.551c.835.211 1.719.112 2.487-.279a3.32 3.32 0 0 0 1.675-1.83 1.262 1.262 0 0 0-.087-1.128.708.708 0 0 0-.942-.274.987.987 0 0 0-.47.936c.046.385.21.746.47 1.034a3.273 3.273 0 0 0 1.95 1.112c1.469.248 3.025-.646 3.398-1.913a1.22 1.22 0 0 0-.714-1.5 1.032 1.032 0 0 0-1.241.838 1.847 1.847 0 0 0 .372 1.5c.295.384.701.668 1.164.812a2.1 2.1 0 0 0 2.151-.518c.365-.34.612-.787.709-1.277.028-.171.047-.344.056-.517.03.171.03.346 0 .517-.08.511-.323.983-.692 1.345a2.24 2.24 0 0 1-.947.574c-.43.134-.89.134-1.319 0a2.544 2.544 0 0 1-1.261-.854 2.032 2.032 0 0 1-.42-1.644c.072-.32.255-.605.518-.802a1.102 1.102 0 0 1 .982-.191 1.432 1.432 0 0 1 .87 1.753 2.876 2.876 0 0 1-1.387 1.676 3.46 3.46 0 0 1-2.27.424 3.511 3.511 0 0 1-2.105-1.19c-.29-.33-.47-.742-.517-1.179a1.241 1.241 0 0 1 .6-1.184.895.895 0 0 1 .719-.083c.233.077.434.23.569.434a1.51 1.51 0 0 1 .124 1.36 3.58 3.58 0 0 1-1.81 1.992 3.786 3.786 0 0 1-2.674.29 2.964 2.964 0 0 1-1.195-.616 1.965 1.965 0 0 1-.677-1.164 1.55 1.55 0 0 1 .352-1.277 1.232 1.232 0 0 1 1.225-.274c.225.061.421.2.554.393.126.19.191.413.186.641-.036.42-.192.82-.45 1.153a4.375 4.375 0 0 1-1.8 1.443 2.71 2.71 0 0 1-2.172-.036 2.259 2.259 0 0 1-.827-.662 1.437 1.437 0 0 1-.316-.988.73.73 0 0 1 .249-.475.672.672 0 0 1 .517-.14.874.874 0 0 1 .75.59 1.63 1.63 0 0 1-.518 1.602 2.921 2.921 0 0 1-1.344.704 5.17 5.17 0 0 1-2.4-.135 2.244 2.244 0 0 1-1.303-.76.967.967 0 0 1-.155-.367.383.383 0 0 1-.031-.119Z" fill="#455A64"/><path d="M70.313 121.653h40.114l6.615-25.62h-33.47l-5.296 23.949-7.963.187v1.484Z" fill="#E0E0E0"/><path d="M270.975 197.844h3.78v-45.318h-3.78v45.318Z" fill="#455A64"/><path d="M246.1 154.574h54.098a5.867 5.867 0 0 0-5.87-5.869h-42.359a5.866 5.866 0 0 0-5.869 5.869Z" fill="#263238"/><path d="M269.19 154.693c2.208.179 4.427.179 6.635 0a39.517 39.517 0 0 0-6.635 0Z" fill="#263238"/><path d="M256.314 201.95h.517a16.096 16.096 0 0 1 27.377-11.197 16.095 16.095 0 0 1 4.815 11.197h.517a16.629 16.629 0 0 0-23.061-15.631 16.66 16.66 0 0 0-5.431 3.681 16.629 16.629 0 0 0-4.765 11.95h.031Z" fill="#455A64"/><path d="M286.825 202.777a2.503 2.503 0 0 0 1.542 2.308 2.502 2.502 0 0 0 2.722-.542 2.495 2.495 0 0 0-.378-3.843 2.503 2.503 0 0 0-3.156.309 2.491 2.491 0 0 0-.73 1.768Z" fill="#263238"/><path d="M253.966 202.431a2.496 2.496 0 0 0 4.264 1.771 2.496 2.496 0 0 0-.382-3.845 2.497 2.497 0 0 0-3.882 2.074ZM256.479 197.844c0 .077 7.241.139 16.161.139 8.921 0 16.161-.062 16.161-.139 0-.078-7.24-.14-16.161-.14-8.92 0-16.161.062-16.161.14Z" fill="#455A64"/><path d="M301.791 107.659v33.361a7.922 7.922 0 0 1-7.923 7.922h-25.707l3.491-41.283a3.526 3.526 0 0 1 1.034-2.498 3.528 3.528 0 0 1 2.498-1.034h23.075a3.53 3.53 0 0 1 3.532 3.532Z" fill="#263238"/><path d="m292.7 148.705.062-.099.186-.274c.171-.238.414-.589.709-1.034a17.516 17.516 0 0 0 1.913-4.251 16.87 16.87 0 0 0 .636-3.155c.107-1.231.142-2.467.104-3.702v-8.528c0-6.04.031-11.506.041-15.514 0-1.965.031-3.563.042-4.696v-1.277a3.003 3.003 0 0 1 .025-.445c.015.148.015.297 0 .445v1.277c0 1.133.026 2.731.047 4.696 0 3.987 0 9.453.036 15.514v8.528a30.932 30.932 0 0 1-.129 3.728 17.232 17.232 0 0 1-.672 3.186 16.733 16.733 0 0 1-2.012 4.251c-.31.46-.564.807-.75 1.034-.07.112-.15.218-.238.316Z" fill="#455A64"/><path d="M278.706 148.72c.27-.042.544-.057.817-.046l2.224-.026h7.354c1.432 0 2.803 0 4.044.046 1.11-.018 2.219.104 3.299.362.73.196 1.407.549 1.986 1.035.156.131.3.276.429.434.093.103.14.16.129.165-.01.006-.206-.201-.625-.517a5.325 5.325 0 0 0-1.965-.936 13.56 13.56 0 0 0-3.258-.3l-4.045-.026c-2.87 0-5.466-.051-7.348-.087l-2.224-.063a4.558 4.558 0 0 1-.817-.041Z" fill="#455A64"/><path d="M291.304 115.395c-.605-5-1.407-9.262-1.407-9.262h-10.829s1.345 6.341 1.034 7.814c-.258 1.278-21.259 2.131-26.731 2.214-.326-.243-.801.165-1.22-.202a4.264 4.264 0 0 1-.931-1.148 6.681 6.681 0 0 1-.75-1.696.566.566 0 0 0-.773-.456.562.562 0 0 0-.261.218c-.218.471.031 2.032 1.07 3.537 1.04 1.505-1.686.724-2.684.46-.998-.263-4.137-.946-4.447-.698-.476.367-.176.957.827 1.2s3.956 1.189 3.796 1.722c-.16.533-5.223-.905-5.223-.905s-1.034-.486-1.241.124c-.373 1.102 5.119 2.214 5.642 2.307.367.067.212.651-.176.563-.388-.087-5.022-1.551-5.409-.429-.3.853 4.509.957 5.305 1.805.797.848-3.62-.455-3.894.372-.098.311 1.748.455 4.401.828 2.724.261 5.461.357 8.197.289 6.154.342 27.895.786 32.539.461 5.409-.383 3.371-7.401 3.165-9.118Z" fill="#FFBE9D"/><path d="M226.681 89.46s-2.984-3.045-3.563-3.164c-.579-.12-6.169-2.927-6.169-2.927a.94.94 0 0 0-.201.35.941.941 0 0 0-.039.4.944.944 0 0 0 .405.677c.827.657 2.782 1.841 2.782 1.841l-1.381 2.725s1.324 4.422 1.552 4.334c.227-.088.465-.869.465-.869l-.419-1.396 2.705 2.26 1.174-.135 2.689-4.095Z" fill="#FFB29D"/><path d="M224.379 87.997c-.651-.253-1.28-.56-1.882-.915l-1.474-.393.166-.114c-.023.448.116.888.393 1.241.409.517.921.944 1.505 1.252l.098.051-.036.099a3.297 3.297 0 0 0-.062 2.068c.144.517.305.77.279.786a1.678 1.678 0 0 1-.419-.74 3.238 3.238 0 0 1-.031-2.192l.062.15a4.61 4.61 0 0 1-1.614-1.314 2.071 2.071 0 0 1-.434-1.422V86.4l.15.041 1.464.44c.639.325 1.253.698 1.835 1.117Z" fill="#EB9078"/><path d="M219.384 89.409c.258 1.17.646 2.308 1.158 3.392.255-.314.432-.685.517-1.08" fill="#FFB29D"/><path d="M221.07 91.72c.008.426-.148.84-.435 1.154l-.108.145-.088-.171a10.41 10.41 0 0 1-.486-1.091 6.488 6.488 0 0 1-.569-2.348c.077 0 .341 1.034.817 2.25.155.403.31.775.45 1.09l-.197-.025a7.07 7.07 0 0 0 .616-1.003Z" fill="#EB9078"/><path d="M221.147 87.377c.228.355.402.742.518 1.148.164.434.271.888.32 1.35a3.426 3.426 0 0 1-.238 1.7 2.7 2.7 0 0 1-.388.637l-.134.155-.088-.186a13.553 13.553 0 0 1-.869-2.426 3.46 3.46 0 0 1-.17-1.034c.072 0 .398 1.505 1.277 3.33h-.222c.141-.172.257-.364.346-.568a4.296 4.296 0 0 0 0-2.891 9.493 9.493 0 0 1-.352-1.215Z" fill="#EB9078"/><path d="m226.681 89.46 21.193 14.346-6.185 7.732-17.676-18.007 2.668-4.07Z" fill="#FFB29D"/><path d="m249.192 202.617-.103-5.213 9.758-.264.238 7.623-.605.057c-2.689.222-13.689.936-15.514.439-2.012-.574 6.226-2.642 6.226-2.642Z" fill="#EE4248"/><path opacity=".5" d="M255.543 204.758a3.388 3.388 0 0 1 1.189-2.115 3.265 3.265 0 0 1 2.26-.771l.078 2.726-3.527.16Z" fill="#fff"/><path opacity=".4" d="M245.169 203.755s-2.88.915-2.508 1.385c.372.471 11.517.161 16.425-.403l-.026-.217-12.991.471s-.331-1.226-.9-1.236Z" fill="#fff"/><path d="M259.215 204.51h-.165l-.481.041-1.774.124c-1.495.093-3.568.197-5.854.264s-4.36.077-5.859.067l-1.774-.026h-.652a.577.577 0 0 1 .166 0h2.26c1.499 0 3.568-.036 5.859-.103a305.47 305.47 0 0 0 5.849-.228l1.774-.088h.481a.71.71 0 0 1 .17-.051Z" fill="#263238"/><path d="M246.074 205.14a3.847 3.847 0 0 0-.352-.837 4.124 4.124 0 0 0-.625-.662c.306.104.564.318.724.6.192.258.282.579.253.899ZM248.913 203.599c-.026 0-.171-.144-.316-.367-.144-.222-.248-.413-.222-.429.026-.016.171.145.321.367.15.223.243.414.217.429ZM249.694 203.16c0 .026-.181-.073-.351-.217-.171-.145-.295-.29-.274-.311.02-.02.181.073.351.218.171.144.295.284.274.31ZM250.165 202.224c0 .036-.222.072-.517.083a1.19 1.19 0 0 1-.517-.042c.164-.064.341-.09.517-.077a1.19 1.19 0 0 1 .517.036ZM250.32 201.583a1.04 1.04 0 0 1-.563.181.979.979 0 0 1-.59-.063c.191-.036.385-.055.579-.056a3.16 3.16 0 0 1 .574-.062Z" fill="#263238"/><path d="M248.557 202.756a1.716 1.716 0 0 1-.631 0 3.845 3.845 0 0 1-.673-.129 1.938 1.938 0 0 1-.382-.145.356.356 0 0 1-.161-.191.241.241 0 0 1 .088-.253 1.149 1.149 0 0 1 1.645.708c.031.109.031.166 0 .171a1.614 1.614 0 0 0-.3-.517 1.168 1.168 0 0 0-.517-.337.985.985 0 0 0-.745.073c-.098.077-.057.191.057.258.114.058.234.105.357.14.212.064.428.114.646.15.378.062.616.057.616.072Z" fill="#263238"/><path d="M248.396 202.793a.65.65 0 0 1-.083-.435.988.988 0 0 1 .16-.46.626.626 0 0 1 .517-.336.251.251 0 0 1 .202.284.738.738 0 0 1-.098.285 1.901 1.901 0 0 1-.285.388.948.948 0 0 1-.351.263s.119-.119.284-.32c.101-.116.186-.245.254-.383.082-.134.134-.372 0-.398-.135-.026-.316.15-.409.279a1.03 1.03 0 0 0-.165.409c-.022.14-.031.282-.026.424ZM258.941 201.846s-.28 0-.719.047a3.03 3.03 0 0 0-2.498 2.105c-.14.424-.145.703-.171.703a.812.812 0 0 1 0-.197c.017-.174.048-.347.094-.517a3.019 3.019 0 0 1 .951-1.479 2.955 2.955 0 0 1 1.619-.682c.172-.019.345-.019.517 0 .165-.006.207.01.207.02ZM257.818 197.813c.084.664.13 1.332.14 2.001.043.668.043 1.338 0 2.006a33.712 33.712 0 0 1-.161-4.007h.021ZM254.286 203.837a5.297 5.297 0 0 1-1.417.181c-.479.038-.96.014-1.432-.072 0-.036.641 0 1.427-.047.786-.046 1.417-.093 1.422-.062Z" fill="#263238"/><path d="M256.2 203.786c.026 0-.047.134-.109.284-.062.15-.093.274-.124.274s-.057-.15 0-.321c.057-.17.212-.263.233-.237ZM256.898 202.865s-.036.129-.135.233c-.098.103-.196.17-.222.15-.026-.021.036-.124.134-.233.099-.109.197-.171.223-.15ZM257.916 202.431c0 .031-.134.031-.279.088-.145.056-.243.134-.269.113-.026-.02.052-.16.228-.222.176-.062.331-.01.32.021ZM258.646 202.213c0 .031-.041.083-.124.119-.082.037-.155.037-.165 0-.011-.036.041-.082.124-.119.083-.036.155-.031.165 0Z" fill="#263238"/><path d="m225.626 174.691 2.244-4.654 8.822 4.183-3.237 6.904-.564-.227c-2.497-1.035-12.628-5.353-14.025-6.62-1.535-1.432 6.76.414 6.76.414Z" fill="#EE4248"/><path opacity=".5" d="M230.307 179.516a3.372 3.372 0 0 1 2.016-1.345 3.288 3.288 0 0 1 2.369.337l-1.169 2.466-3.216-1.458Z" fill="#fff"/><path opacity=".4" d="M221.51 173.931s-2.984-.486-2.865.103c.119.59 10.198 5.353 14.827 7.07l.082-.207-11.801-5.461s.259-1.262-.243-1.505Z" fill="#fff"/><path d="m233.694 180.959-.135-.062-.449-.176-1.635-.693a186.499 186.499 0 0 1-5.342-2.41 180.827 180.827 0 0 1-5.254-2.586l-1.551-.822-.424-.233-.145-.087a.686.686 0 0 1 .155.067l.434.212 1.588.791a309.41 309.41 0 0 0 5.27 2.56 279.54 279.54 0 0 0 5.321 2.441l1.624.724.439.201.104.073Z" fill="#263238"/><path d="M221.691 175.575c.052-.298.073-.602.062-.905a3.884 3.884 0 0 0-.259-.874c.229.229.364.536.378.859.054.319-.011.646-.181.92ZM224.918 175.487a1.098 1.098 0 0 1-.119-.47 1.078 1.078 0 0 1 0-.486c.036 0 .088.207.119.47.031.264.036.481 0 .486ZM225.803 175.446c-.031 0-.125-.145-.212-.352-.088-.206-.135-.387-.104-.403.031-.015.124.145.212.357s.145.388.104.398ZM226.66 174.826a1.167 1.167 0 0 1-.517-.156c-.253-.119-.45-.237-.439-.269.01-.031.232.042.491.161.171.055.33.145.465.264ZM227.09 174.314c-.2.028-.404-.004-.585-.094-.31-.118-.517-.294-.517-.32.179.053.353.124.517.212.201.05.396.117.585.202Z" fill="#263238"/><path d="M224.986 174.577a1.907 1.907 0 0 1-.569-.274 3.657 3.657 0 0 1-.517-.419 2.023 2.023 0 0 1-.28-.305.338.338 0 0 1-.057-.243.24.24 0 0 1 .171-.196 1.143 1.143 0 0 1 1.143.915c.035.153.035.312 0 .465 0 .104-.047.161-.057.161a1.76 1.76 0 0 0-.026-.61 1.194 1.194 0 0 0-.336-.543.972.972 0 0 0-.698-.275c-.124.026-.14.15-.067.254.076.105.163.202.258.289.161.157.334.3.517.43.3.227.523.331.518.351Z" fill="#263238"/><path d="M224.825 174.536a.619.619 0 0 1 .119-.424c.088-.14.208-.257.351-.341a.63.63 0 0 1 .611-.068.246.246 0 0 1 .094.161.245.245 0 0 1-.043.181.708.708 0 0 1-.217.212 2.082 2.082 0 0 1-.429.217.866.866 0 0 1-.435.072s.161-.046.404-.155c.141-.06.274-.137.398-.227.134-.083.29-.269.16-.362a.543.543 0 0 0-.491.062c-.13.073-.243.173-.331.294a2.001 2.001 0 0 0-.191.378ZM234.656 178.461s-.243-.145-.662-.29a3.111 3.111 0 0 0-3.186.75c-.31.316-.445.564-.465.554a.508.508 0 0 1 .088-.181c.091-.154.198-.298.32-.43a2.963 2.963 0 0 1 3.269-.77c.169.063.33.144.481.243.093.072.16.119.155.124ZM235.478 174.355a16.44 16.44 0 0 1-.781 1.846 16.254 16.254 0 0 1-.889 1.8c.224-.63.485-1.247.78-1.846a16.26 16.26 0 0 1 .89-1.8ZM229.603 178.13a5.265 5.265 0 0 1-1.35-.481 5.587 5.587 0 0 1-1.241-.714c0-.031.579.28 1.293.606.713.325 1.308.558 1.298.589Z" fill="#263238"/><path d="M231.336 178.947c0 .031-.109.098-.228.207-.119.109-.207.202-.238.186-.031-.015 0-.16.16-.279.161-.119.295-.145.306-.114ZM232.37 178.446c0 .031-.088.093-.223.144-.134.052-.253.062-.269.031-.015-.031.094-.093.228-.144.134-.052.253-.062.264-.031ZM233.476 178.518c0 .026-.135-.031-.284-.047-.15-.015-.28 0-.295 0-.016 0 .119-.119.305-.098.186.021.3.119.274.145ZM234.227 178.652c0 .037-.078.057-.166.052-.088-.005-.15-.041-.15-.072 0-.031.073-.052.16-.047.088.005.156.036.156.067ZM290.134 105.963c-1.88.157-3.766.214-5.652.17a53.948 53.948 0 0 1-5.658-.129c3.767-.214 7.542-.227 11.31-.041Z" fill="#263238"/><path d="m289.984 106.511-2.068-10.41c-1.552-8.518-13.472-9.107-13.472-9.107l-9.37-.15s-6.951-.936-11.238 3.9c-4.437 5.005-9.888 10.916-9.888 10.916l4.137 10.472 9.862-8.134a10.07 10.07 0 0 0-1.324 4.731c0 2.777 2.896 4.055 2.896 4.055l.885 8.445-2.927 13.642 30.609-1.226a30.446 30.446 0 0 0-4.514-12.861l.569-14.268 5.843-.005Z" fill="#EE4248"/><path d="M256.867 106.806c.081-.479.204-.95.367-1.407.13-.429.29-.941.486-1.505.099-.279.207-.574.331-.874.068-.165.156-.305.197-.439.046-.146.065-.298.057-.45a6.866 6.866 0 0 0-.145-.957 53.258 53.258 0 0 1-.171-.915c-.098-.559-.186-1.076-.269-1.552a6.661 6.661 0 0 1-.175-1.448c.176.454.305.926.382 1.407.104.47.212.988.336 1.551.056.293.118.598.187.916.079.34.131.685.155 1.034.009.185-.016.371-.073.548-.062.186-.15.326-.206.46-.13.295-.238.58-.347.859l-.517 1.474a6.347 6.347 0 0 1-.595 1.298Z" fill="#263238"/><path opacity=".2" d="M277.201 97.663a357.44 357.44 0 0 1 .719 16.967 4.318 4.318 0 0 0 2.182-.683c.3-2.482-1.551-10.027-2.901-16.284Z" fill="#000"/><path d="M288.175 132.285s-40.017-8.383-43.895-6.547c-3.879 1.836-21.72 46.026-21.72 46.026l14.386 6.206 15.484-37.529s28.019 10.234 32.911 9.215c4.892-1.019 2.834-17.371 2.834-17.371Z" fill="#455A64"/><path d="M270.276 134.628c-.615.202-23.762 9.717-25.396 12.779-1.635 3.061 2.378 53.855 2.378 53.855h13.193l-.817-45.147 25.697-6.511-15.055-14.976Z" fill="#455A64"/><path d="M285.455 149.708a1.723 1.723 0 0 1-.378-.047l-1.075-.191a154.87 154.87 0 0 1-3.946-.791 192.066 192.066 0 0 1-12.882-3.191 153.864 153.864 0 0 1-6.971-2.203 79.52 79.52 0 0 1-5.58-2.131 50.208 50.208 0 0 1-2.105-.91c-.615-.279-1.143-.517-1.551-.739l-.978-.492a1.557 1.557 0 0 1-.331-.191c.124.03.244.076.357.134l1.003.445c.43.197.962.429 1.583.688.62.259 1.324.564 2.115.869 1.551.641 3.475 1.324 5.59 2.068 2.115.745 4.479 1.459 6.966 2.178 4.975 1.427 9.536 2.518 12.846 3.273l3.92.884 1.065.243c.121.023.239.057.352.104ZM244.901 159.073a3.68 3.68 0 0 1-.119-.76c-.062-.548-.135-1.246-.223-2.068-.088-.823-.181-1.945-.284-3.103a13.857 13.857 0 0 1 0-3.827 5.98 5.98 0 0 1 1.924-3.31 10.122 10.122 0 0 1 2.632-1.696c.812-.372 1.489-.605 1.955-.771.238-.096.486-.167.739-.212 0 .052-1.034.414-2.586 1.174a10.458 10.458 0 0 0-2.533 1.707 5.8 5.8 0 0 0-1.816 3.165 14.7 14.7 0 0 0 0 3.749c.083 1.148.161 2.198.223 3.103.062.905.093 1.551.124 2.068a3.52 3.52 0 0 1-.036.781ZM256.453 154.714a9.408 9.408 0 0 1 3.103 1.37 5.134 5.134 0 0 1-1.619-.548 4.975 4.975 0 0 1-1.484-.822Z" fill="#263238"/><path d="M257.611 153.323c.37.477.715.972 1.035 1.484.594.796 1.199 1.35 1.142 1.417a4.72 4.72 0 0 1-2.192-2.901h.015Z" fill="#263238"/><path d="M262.669 155.407s-.041.108-.207.207a1.523 1.523 0 0 1-.76.181 8.711 8.711 0 0 0-1.096.026.758.758 0 0 0-.652.837c0 1.934-.077 3.522-.165 3.517a19.671 19.671 0 0 1-.14-3.532c.001-.271.09-.534.253-.75a1.04 1.04 0 0 1 .657-.347 6.516 6.516 0 0 1 1.143.037c.332.027.666-.033.967-.176Z" fill="#263238"/><path opacity=".2" d="m259.51 125.459 27.279 2.193-1.163-3.051-25.847-.373-.269 1.231Z" fill="#000"/><path d="M260.213 62.47c-2.002.647-4.324 1.976-3.17 8.239.517 2.756 1.148 5.564 2.994 7.67a1.313 1.313 0 0 0 1.07.589c.299-.083.56-.266.74-.517 2.099-2.286 3.889-4.99 4.458-8.042.569-3.051-.285-6.495-2.689-8.46" fill="#263238"/><path d="M264.071 89.642c-.067-2.88-.186-5.968-.186-5.968s-4.386-.553-4.577-5.027c-.191-4.473-.233-12.313-.233-12.313l8.559-6.335 6.009 8.274.15 21.203a4.86 4.86 0 0 1-4.861 4.898 4.864 4.864 0 0 1-4.861-4.732Z" fill="#FFB29D"/><path d="M263.863 83.674a10.682 10.682 0 0 0 5.803-1.903s-1.366 3.258-5.73 3l-.073-1.097ZM264.257 78.461a.527.527 0 0 1-.053-.268.521.521 0 0 1 .57-.477.83.83 0 0 1 .838-.729.936.936 0 0 1 .848.76 1.082 1.082 0 0 1-.475 1.06 1.292 1.292 0 0 1-1.18.088.932.932 0 0 1-.594-.703" fill="#EB9078"/><path d="M260.119 71.95a.61.61 0 0 0 .595.616.587.587 0 0 0 .631-.554.62.62 0 0 0-.59-.62.592.592 0 0 0-.636.558ZM259.985 71.262c.077.083.517-.263 1.205-.263.687 0 1.143.336 1.215.253.072-.083-.041-.181-.253-.336a1.726 1.726 0 0 0-.973-.3c-.343 0-.678.108-.956.31-.207.15-.29.295-.238.336ZM266.59 72.105a.608.608 0 0 0 .595.616.58.58 0 0 0 .573-.328.57.57 0 0 0 .057-.226.615.615 0 0 0-.589-.62.595.595 0 0 0-.636.558ZM266.481 71.381c.077.078.543-.263 1.2-.263.656 0 1.148.33 1.22.253.073-.078-.041-.181-.253-.336a1.73 1.73 0 0 0-.957-.29c-.343.001-.678.11-.957.31-.222.145-.289.29-.253.326ZM264.071 76.279a4.293 4.293 0 0 0-1.071-.192c-.17 0-.331-.051-.357-.165a.85.85 0 0 1 .114-.517c.155-.409.321-.838.517-1.283a22.59 22.59 0 0 0 1.123-3.361 22.214 22.214 0 0 0-1.392 3.263c-.165.45-.325.88-.475 1.293a.974.974 0 0 0-.088.662.426.426 0 0 0 .279.243c.092.027.188.04.284.041.353.053.712.058 1.066.016ZM266.026 76.739c-.104 0-.109.708-.719 1.22s-1.381.43-1.386.517c-.005.088.171.14.517.15.42.005.828-.138 1.153-.403a1.55 1.55 0 0 0 .559-1.034c-.01-.28-.072-.455-.124-.45ZM266.186 69.907c.062.176.724.094 1.499.187.776.093 1.402.305 1.505.144.042-.077-.067-.248-.315-.418a2.507 2.507 0 0 0-1.117-.393c-.397-.05-.8-.003-1.174.14-.285.113-.445.253-.398.34ZM260.229 69.344c.119.15.574 0 1.122 0 .548 0 1.034.098 1.117-.057.047-.078 0-.228-.233-.367a1.519 1.519 0 0 0-.905-.249c-.322.005-.635.11-.894.3-.192.145-.259.3-.207.373Z" fill="#263238"/><path d="M269.651 69.546a3.45 3.45 0 0 0 2.177-.776c.398 1.034.388 2.224.75 3.289s1.215 5.471 2.332 5.306c1.034-.155 1.748-4.598 2.012-5.596.719-2.772-.186-5.818-2.022-8.01-2.188-2.586-5.828-4.815-9.211-4.572a7.607 7.607 0 0 0-4.204 1.474s-1.825 1.412-1.675 3.206c.212 2.508 3.868 4.137 6.376 4.044l.362.347a4.335 4.335 0 0 0 3.103 1.288Z" fill="#263238"/><path d="M259.028 68.723a3.702 3.702 0 0 0 1.252-2.001c.179-.783.276-1.582.29-2.384 0-.233-.026-.517-.249-.59-.222-.072-.398.166-.517.362a7.717 7.717 0 0 0-.791 4.846c.046-.047-.15.124-.103.078M275.225 87.294a5.29 5.29 0 0 0 1.748-4.566c-.16-1.288-.796-2.514-.734-3.807.047-1.034.517-1.96.859-2.932.533-1.587.666-3.282.387-4.934-.222-1.303-.749-2.632-1.825-3.402s-2.767-.75-3.558.305l-.383.119a10.741 10.741 0 0 0 1.365 11.434 5.862 5.862 0 0 0 .099 7.866 6.415 6.415 0 0 0-.807 6.428l.036.077a5.658 5.658 0 0 0-.191 7.551 5.586 5.586 0 0 0-1.903 3.273 3.053 3.053 0 0 0 1.582 3.165 3.627 3.627 0 0 0-1.226 3.324 3.618 3.618 0 0 0 2.198 2.778c.561-.565 1.18-1.07 1.847-1.505a1.868 1.868 0 0 1-.848-.817c.415.302.918.46 1.432.45l-.621-2.813a3.647 3.647 0 0 0-.517-1.448.517.517 0 0 0-.072-.083 3.37 3.37 0 0 0 1.608-1.743c.559-1.442.171-3.102-.574-4.463.786-1.618 1.552-3.32 1.552-5.12a5.467 5.467 0 0 0-.517-2.373 6.728 6.728 0 0 0 1.111-3.62 3.455 3.455 0 0 0-2.048-3.144Z" fill="#263238"/><path d="M274.656 101.401a1.485 1.485 0 0 1-1.199.445 1.52 1.52 0 0 1-1.216-.408c.036-.073.548.155 1.21.139.662-.015 1.169-.248 1.205-.176ZM275.82 94.994a10.368 10.368 0 0 0-2.586 2.219 10.69 10.69 0 0 0-1.489 3.046c-.013-.343.04-.686.155-1.009a6.726 6.726 0 0 1 2.963-3.847c.287-.203.613-.342.957-.409ZM275.303 94.115a1.887 1.887 0 0 1-2.364 0c.037-.072.518.15 1.185.145.667-.005 1.143-.212 1.179-.145ZM276.11 93.241a6.9 6.9 0 0 0-2.488-5.006c.277.095.528.253.734.46a5.322 5.322 0 0 1 1.826 3.682c.044.29.019.586-.072.864ZM275.447 86.565c.062.036-.212.465-.77.682-.559.218-1.034.093-1.034 0s.449-.077.936-.269c.486-.191.801-.465.868-.413ZM273.84 86.865a1.836 1.836 0 0 1-.569-.952 4.14 4.14 0 0 1 .119-2.674A7.085 7.085 0 0 1 274.849 81c.232-.288.506-.54.811-.75a5.214 5.214 0 0 1-.667.874 8.262 8.262 0 0 0-1.349 2.214 4.327 4.327 0 0 0-.192 2.518c.109.344.239.68.388 1.009ZM275.696 79.625a2.166 2.166 0 0 1-2.41-.492c.047-.062.517.228 1.184.357.667.13 1.21.047 1.226.135ZM277.765 72.514c-.386.11-.791.138-1.189.083a5.743 5.743 0 0 1-4.655-3.072 2.785 2.785 0 0 1-.393-1.128c.042 0 .187.42.559 1.035a6.176 6.176 0 0 0 4.525 2.978c.698.099 1.153.057 1.153.104Z" fill="#455A64"/><path d="M277.366 75.172s-.098.119-.341.222a2.068 2.068 0 0 1-1.117.104 5.366 5.366 0 0 1-3.041-1.976 6.772 6.772 0 0 1-1.468-3.325 5.464 5.464 0 0 1-.052-1.107c-.001-.137.02-.273.062-.403.052 0 0 .58.176 1.479a7.198 7.198 0 0 0 1.494 3.186 5.54 5.54 0 0 0 2.86 1.96c.479.098.977.05 1.427-.14ZM276.409 66.986c-.16.103-.334.185-.517.243a5.568 5.568 0 0 1-1.515.346 6.264 6.264 0 0 1-2.337-.227 6.069 6.069 0 0 1-2.586-1.454l.134.031a6.757 6.757 0 0 1-1.825.357 6.91 6.91 0 0 1-3.517-.724 6.722 6.722 0 0 1-2.26-1.882 6.367 6.367 0 0 1-.967-1.727 4.668 4.668 0 0 1-.16-.517c0-.12-.036-.181 0-.187.314.83.752 1.608 1.298 2.307a6.665 6.665 0 0 0 5.616 2.456 6.662 6.662 0 0 0 1.753-.336h.078l.057.052a6.03 6.03 0 0 0 2.441 1.422c.73.227 1.496.321 2.26.28a9.154 9.154 0 0 0 2.047-.44Z" fill="#455A64"/><path d="M274.414 63.381a1.912 1.912 0 0 1-.518.088c-.346.041-.848.088-1.468.145l-2.177.176c-.898.086-1.802.086-2.7 0a9.154 9.154 0 0 1-4.52-1.826 8.274 8.274 0 0 1-1.091-1.003 1.925 1.925 0 0 1-.326-.434c.036-.037.517.568 1.552 1.287a9.572 9.572 0 0 0 4.437 1.707c.881.075 1.767.075 2.648 0l2.187-.12a46.753 46.753 0 0 1 1.474-.056c.168-.008.336.004.502.036ZM274.646 107.24a1.685 1.685 0 0 1-1.308.564 1.65 1.65 0 0 1-1.365-.404c.446.077.897.122 1.349.135.448-.068.89-.167 1.324-.295Z" fill="#455A64"/><path d="M273.607 108.031a5.15 5.15 0 0 1 .073-.812 5.537 5.537 0 0 0-.212-1.903 5.586 5.586 0 0 0-.88-1.701c-.305-.393-.517-.6-.517-.636.258.116.484.293.657.517.454.503.791 1.1.988 1.748.2.649.249 1.335.145 2.006-.02.277-.107.546-.254.781Z" fill="#455A64"/><path d="M291.304 115.395c-.605-5-1.407-9.262-1.407-9.262h-10.829s1.345 6.341 1.034 7.814c-.258 1.278-21.259 2.131-26.731 2.214-.326-.243-.801.165-1.22-.202a4.264 4.264 0 0 1-.931-1.148 6.681 6.681 0 0 1-.75-1.696.566.566 0 0 0-.773-.456.562.562 0 0 0-.261.218c-.218.471.031 2.032 1.07 3.537 1.04 1.505-1.686.724-2.684.46-.998-.263-4.137-.946-4.447-.698-.476.367-.176.957.827 1.2s3.956 1.189 3.796 1.722c-.16.533-5.223-.905-5.223-.905s-1.034-.486-1.241.124c-.373 1.102 5.119 2.214 5.642 2.307.367.067.212.651-.176.563-.388-.087-5.022-1.551-5.409-.429-.3.853 4.509.957 5.305 1.805.797.848-3.62-.455-3.894.372-.098.311 1.748.455 4.401.828 2.724.261 5.461.357 8.197.289 6.154.342 27.895.786 32.539.461 5.409-.383 3.371-7.401 3.165-9.118Z" fill="#FFB29D"/><path d="m219.431 95.547 8.92 26.059h40.379l-.3-1.344-16.326-.502-7.525-24.228-25.148.015Z" fill="#E0E0E0"/><path d="M237.324 107.788c.269 1.066-.191 2.11-1.034 2.333-.843.222-1.723-.461-1.986-1.552-.264-1.091.186-2.11 1.034-2.332.848-.223 1.722.481 1.986 1.551Z" fill="#fff"/><path d="M60.673 121.601v3.377h104.101v76.144h23.53v-76.144h103.858v-3.377H60.672Z" fill="#263238"/><path d="m160.881 202.963-.523-26.079 9.992-1.655-1.573 27.621-7.896.113Z" fill="#EB996E"/><path d="m169.201 203.082-.026-.92-8.667.217.052 3.036h.517c2.384.077 12.132.232 13.714-.29 1.784-.553-5.59-2.043-5.59-2.043Z" fill="#EE4248"/><path opacity=".4" d="M163.688 205.275a2.977 2.977 0 0 0-1.143-1.815 2.93 2.93 0 0 0-2.032-.585l.057 2.415 3.118-.015Z" fill="#fff"/><path opacity=".4" d="M172.806 203.936s2.585.682 2.28 1.117c-.305.434-10.167.646-14.526.362v-.197l11.501-.15s.243-1.096.745-1.132Z" fill="#fff"/><path d="M160.436 205.203c.049.004.1.004.15 0h.424l1.551.031h5.171c2.012 0 3.853-.125 5.172-.202l1.551-.098.424-.031h.145-.574l-1.551.067c-1.324.057-3.155.124-5.172.165a257.65 257.65 0 0 1-5.171.057h-1.996l-.124.011Z" fill="#263238"/><path d="M172.071 205.203a2.243 2.243 0 0 1 .797-1.366 1.398 1.398 0 0 0-.797 1.366ZM169.496 203.961s.14-.134.264-.336c.124-.201.201-.377.176-.388-.026-.01-.145.135-.264.337-.119.201-.202.372-.176.387ZM168.788 203.61s.155-.073.3-.212c.145-.14.248-.264.227-.285-.02-.02-.155.073-.3.212-.144.14-.248.264-.227.285ZM168.327 202.803a.944.944 0 0 0 .45.047.967.967 0 0 0 .455-.057 1.187 1.187 0 0 0-.455-.047 1.129 1.129 0 0 0-.45.057ZM168.162 202.234a.906.906 0 0 0 .517.135.84.84 0 0 0 .517-.083 3.432 3.432 0 0 0-.517 0 2.425 2.425 0 0 0-.517-.052Z" fill="#263238"/><path d="M169.771 203.206c.183.032.37.032.553 0 .2-.027.398-.074.589-.139a1.59 1.59 0 0 0 .337-.15.305.305 0 0 0 .134-.171.214.214 0 0 0-.013-.125.206.206 0 0 0-.08-.097 1.036 1.036 0 0 0-1.252.326.977.977 0 0 0-.17.372.293.293 0 0 0 0 .15c.053-.171.135-.332.243-.476a.99.99 0 0 1 .465-.321.884.884 0 0 1 .662.031c.088.063.057.166-.041.228a1.648 1.648 0 0 1-.305.14 3.614 3.614 0 0 1-.569.16c-.341.047-.553.052-.553.072Z" fill="#263238"/><path d="M169.915 203.227a.516.516 0 0 0 .056-.388.923.923 0 0 0-.16-.398.558.558 0 0 0-.471-.274.221.221 0 0 0-.134.096c-.031.048-.042.106-.031.163a.61.61 0 0 0 .103.248c.075.121.166.232.269.331a.81.81 0 0 0 .321.217s-.114-.098-.269-.269a1.758 1.758 0 0 1-.238-.331c-.083-.114-.139-.326 0-.352.14-.026.285.119.373.228.078.107.134.228.165.357.016.123.021.248.016.372ZM160.56 202.85s.248-.026.636 0c.507.041.993.22 1.406.517.405.312.715.731.895 1.21.14.367.16.615.181.61a.612.612 0 0 0 0-.171 2.248 2.248 0 0 0-.103-.465 2.704 2.704 0 0 0-.905-1.267 2.656 2.656 0 0 0-1.464-.517 2.47 2.47 0 0 0-.471 0 .67.67 0 0 0-.175.083ZM164.78 204.411a7.377 7.377 0 0 0 2.524-.031c0-.031-.569 0-1.262 0-.693 0-1.262 0-1.262.031Z" fill="#263238"/><path d="M163.068 204.442s.047.119.109.249c.062.129.093.243.124.237.031-.005.041-.134-.031-.284-.072-.15-.186-.222-.202-.202ZM162.411 203.651s.036.109.129.197c.094.088.181.144.202.124.021-.021-.036-.114-.129-.202a.421.421 0 0 0-.202-.119ZM161.491 203.32c0 .031.119.026.248.067.129.042.222.109.243.088.021-.02-.052-.134-.212-.186-.16-.052-.29.005-.279.031ZM160.839 203.165c0 .026.041.072.114.098.072.026.134.026.144 0 .011-.026-.041-.067-.113-.093-.073-.026-.135-.036-.145-.005Z" fill="#263238"/><path d="m171.87 202.798-.682-26.442 10.042-1.127-1.308 27.507-8.052.062Z" fill="#FFBE9D"/><path d="M145.097 128.665c9.789.062 19.589.13 29.337 1.035 3.889.351 8.094.998 10.798 3.811 2.534 2.637 3.103 6.531 3.589 10.157l4.272 33.164a152.912 152.912 0 0 1-40.622-1.288c.1-8.219.195-16.436.285-24.652l.217-3.858-15.085-1.008 7.209-17.361Z" fill="#EE4248"/><path d="M178.375 141.496a24.57 24.57 0 0 1 2.193-4.686 25.474 25.474 0 0 1-2.193 4.686ZM183.242 152.588a9.224 9.224 0 0 1-1.469-1.686 9.72 9.72 0 0 1-1.256-1.856 9.207 9.207 0 0 1 1.468 1.691c.49.566.912 1.187 1.257 1.851ZM181.499 159.125a15.927 15.927 0 0 1-2.974 2.808 7.915 7.915 0 0 1 1.397-1.505c.466-.502.996-.94 1.577-1.303ZM188.754 165.698a18.499 18.499 0 0 1-1.075-4.308c.53 1.388.891 2.834 1.075 4.308ZM182.668 172.664a7.232 7.232 0 0 1-.771-1.769 7.14 7.14 0 0 1-.517-1.851 13.516 13.516 0 0 1 1.293 3.62h-.005ZM174.963 154.703a9.66 9.66 0 0 1-.393 2.245 9.513 9.513 0 0 1-.652 2.177 19.584 19.584 0 0 1 1.034-4.422h.011Z" fill="#FAFAFA"/><path d="M165.105 120.541h39.826v-1.939h-39.826v1.939Z" fill="#263238"/><path d="m211.105 120.541 7.468-27.993h-31.096l-6.764 27.993h30.392Z" fill="#263238"/><path d="M182.574 118.421h27.781l6.47-24.58h-27.926l-6.325 24.58Z" fill="#F5F5F5"/><path d="m189.592 98.604-1.722 6.961h18.416l1.965-6.961h-18.659Z" fill="#E0E0E0"/><path d="M204.367 97.683c0 .078-3.232.135-7.214.135s-7.24-.057-7.24-.135c0-.077 3.232-.134 7.24-.134s7.214.088 7.214.134Z" fill="#455A64"/><path d="M195.974 99.933c-1.935.179-3.883.179-5.818 0 1.935-.18 3.883-.18 5.818 0ZM200.638 99.824a13.456 13.456 0 0 1-3.79 0 13.442 13.442 0 0 1 3.79 0Z" fill="#263238"/><path d="M205.903 101.195c0 .077-3.563.134-7.954.134-4.39 0-7.959-.057-7.959-.134 0-.078 3.563-.135 7.959-.135 4.396 0 7.954.062 7.954.135Z" fill="#455A64"/><path d="M194.821 102.348c-1.719.18-3.452.18-5.172 0 1.72-.18 3.453-.18 5.172 0Z" fill="#EE4248"/><path d="M204.475 103.992c0 .078-3.304.135-7.38.135-4.075 0-7.379-.057-7.379-.135 0-.077 3.304-.134 7.379-.134 4.076 0 7.38.062 7.38.134ZM193.61 107.561a30.36 30.36 0 0 1-5.688 0 30.191 30.191 0 0 1 5.688 0Z" fill="#455A64"/><path d="M198.498 107.581a14.183 14.183 0 0 1-3.899-.031 14.222 14.222 0 0 1 3.899.031ZM201.238 107.462c0 .073-.367.135-.822.135-.455 0-.822-.062-.822-.135 0-.072.367-.134.822-.134.455 0 .822.052.822.134Z" fill="#263238"/><path d="M189.826 109.014c0 .072-.404.134-.905.134-.502 0-.905-.062-.905-.134 0-.073.403-.135.905-.135.501 0 .905.037.905.135Z" fill="#EE4248"/><path d="M195.261 109.014a17.597 17.597 0 0 1-4.339 0 17.597 17.597 0 0 1 4.339 0Z" fill="#263238"/><path d="M208.219 108.823c0 .077-2.585.134-5.792.134-3.206 0-5.786-.057-5.786-.134 0-.078 2.585-.135 5.786-.135 3.202 0 5.792.062 5.792.135Z" fill="#455A64"/><path d="M189.55 110.472c0 .073-.418.135-.93.135s-.936-.062-.936-.135c0-.072.418-.139.936-.139.517 0 .93.062.93.139ZM192.406 110.415a2.53 2.53 0 0 1-1.128.135 2.477 2.477 0 0 1-1.122-.135 2.49 2.49 0 0 1 1.122-.134c.382-.042.767.004 1.128.134Z" fill="#263238"/><path d="M200.912 110.307c-2.43.179-4.871.179-7.302 0 2.431-.18 4.872-.18 7.302 0ZM196.408 112.882a35.77 35.77 0 0 1-4.416.135 35.78 35.78 0 0 1-4.417-.135 36.788 36.788 0 0 1 4.417-.134 36.778 36.778 0 0 1 4.416.134Z" fill="#455A64"/><path d="M201.569 112.773c-1.33.18-2.678.18-4.007 0a15.017 15.017 0 0 1 4.007 0Z" fill="#EE4248"/><path d="M209.223 112.773c-2.21.18-4.43.18-6.64 0 2.21-.179 4.43-.179 6.64 0ZM207.439 97.575c0 .072-.305.134-.683.134-.377 0-.688-.062-.688-.134 0-.073.305-.135.688-.135.383 0 .683.062.683.135Z" fill="#263238"/><path d="M193.445 96.644c-.997.18-2.018.18-3.015 0a8.517 8.517 0 0 1 3.015 0Z" fill="#EE4248"/><path d="M216.36 95.61h-27.925l.47-1.77h27.926l-.471 1.77Z" fill="#EBEBEB"/><path d="M190.074 95.04a.305.305 0 1 0 0-.61.305.305 0 0 0 0 .61ZM191.128 95.04a.305.305 0 1 0 0-.609.305.305 0 0 0 0 .61ZM192.178 95.04a.305.305 0 1 0 0-.609.305.305 0 0 0 0 .61Z" fill="#FAFAFA"/><path d="m159.091 105.911 3.987 12.008c1.076 3.243 3.91 3.801 7.328 3.801h22.18v-4.949l-20.261-2.891-4.856-12.365-8.378 4.396Z" fill="#FFBE9D"/><path d="m195.001 115.737 1.759-.833s1.898-3.666 2.332-3.516c.434.15.564 1.225-.196 2.906l2.337-.667s5.068 2.342 4.846 2.658a1.172 1.172 0 0 1-1.264.708 1.157 1.157 0 0 1-.479-.191c-1.107-.564-2.55-1.226-2.55-1.226l-2.735.781 3.521.445 3.315 3.015a1.615 1.615 0 0 1-2.027-.047l-8.605 1.847-2.694.155v-5.001l2.44-1.034Z" fill="#FFBE9D"/><path d="M203.861 119.724c-.037 0-.197-.233-.518-.569a2.588 2.588 0 0 0-.625-.486 2.533 2.533 0 0 0-.931-.243 13.096 13.096 0 0 1-2.586-.44c.876-.03 1.752.027 2.617.171.362.026.714.128 1.034.3.249.15.468.345.647.574.18.195.305.434.362.693ZM202.531 120.065c-.031 0-.062-.176-.3-.227-.238-.052-.641-.093-1.034-.135a8.283 8.283 0 0 1-1.515-.155 3.141 3.141 0 0 1 1.551-.114c.368.032.73.107 1.081.223a.445.445 0 0 1 .264.274c-.016.093-.047.139-.047.134Z" fill="#EB996E"/><path d="m142.993 61.737-1.205 24.393 10.446.988.574-5.921s3.688.91 4.805-2.498c.713-2.183 1.349-19.233 1.349-19.233l-15.969 2.27Z" fill="#FFBE9D"/><path d="M159.867 62.316c.284 2.28-2.906 3.62-2.906 3.62l-.559 5.399c-.499-.036-1-.036-1.5 0 .269-2.534-2.994-2.038-3.325-.31-.331 1.727 1.552 2.771 1.552 2.771-1.309 2.007-1.836 3.062-3.688 4.94-2.006 2.031-3.103 2.197-5.171 2.135l-2.281-.103s-.812-1.95-1.406-6.553c-.29-2.218-2.017-5.12-1.526-8.724 1.417-10.26 11.243-9.184 11.243-9.184 5.083.144 8.895.708 9.567 6.009Z" fill="#263238"/><path d="M152.368 56.606c2.219.057 4.51.228 6.459 1.293 1.95 1.066 3.507 3.905 3.103 6.082-.367.067-.77.217-1.138.284-.15-.274-.336-1.287-.491-1.551 0 .44-.134 1.417-.129 1.851-.647.181-1.153-.18-1.805 0a14.202 14.202 0 0 0-1.722-4.71" fill="#263238"/><path d="m159.882 107.897 2.012 6.537 12.019-2.834c-.393-1.211-3.724-8.854-7.153-17.407a14.701 14.701 0 0 0-11.222-9.045 63.733 63.733 0 0 0-10.368-1.035c-6.066.068-13.932 2.617-15.132 8.57-.92 4.54 1.122 11.961 1.122 21.719l-1.437 20.469 30.159 1.034-3.056-17.955 3.056-10.053Z" fill="#EE4248"/><path opacity=".2" d="M128.963 111.967c3.785.77 7.674 0 11.532-.238 2.338-.14 4.934-.393 6.78 1.034 1.469 1.143 2.069 3.056 2.482 4.866.921 3.92 1.552 12.029 1.986 19.595a14.236 14.236 0 0 0 7.866 11.941c1.205.6 4.385.62 4.406 1.034l-30.925 1.267-4.127-39.499Z" fill="#000"/><path d="M151.003 152.785h-3.78v45.317h3.78v-45.317ZM115.48 108.797v33.361a7.937 7.937 0 0 0 2.323 5.604 7.932 7.932 0 0 0 5.605 2.318h22.237v-41.283a3.533 3.533 0 0 0-3.532-3.532h-23.1a3.533 3.533 0 0 0-3.533 3.532Z" fill="#455A64"/><path d="M175.521 152.785h-54.104a5.877 5.877 0 0 1 5.875-5.87h42.354a5.878 5.878 0 0 1 5.875 5.87Z" fill="#455A64"/><path d="M145.645 146.134a.804.804 0 0 1 0 .259c.001.246-.028.491-.088.729a3.988 3.988 0 0 1-3.164 3.01c-.712.075-1.427.103-2.141.083h-4.862c-3.449 0-6.573 0-8.832-.031l-2.674-.042-.729-.026a.809.809 0 0 1-.254-.031.987.987 0 0 1 .254-.025h.729l2.674-.047c2.259-.031 5.383-.047 8.832-.052h4.862c.7.028 1.401.011 2.099-.051a3.833 3.833 0 0 0 1.639-.693 3.947 3.947 0 0 0 1.464-2.121c.15-.605.134-.962.191-.962ZM152.431 152.904a39.517 39.517 0 0 1-6.635 0 39.517 39.517 0 0 1 6.635 0Z" fill="#263238"/><path d="M168.917 150.385a9.51 9.51 0 0 1-.336-1.592 231.818 231.818 0 0 1-.708-4.36c-.285-1.841-.507-4.08-1.542-6.294a15.29 15.29 0 0 0-2.006-3.206 14.553 14.553 0 0 0-3.015-2.72 13.554 13.554 0 0 0-3.656-1.758 13.743 13.743 0 0 0-3.734-.647c-2.446-.057-4.654-.046-6.542-.077a278.669 278.669 0 0 1-4.416-.093 8.568 8.568 0 0 1-1.624-.109 9.8 9.8 0 0 1 1.624-.109 295.11 295.11 0 0 1 4.416-.088c1.867-.025 4.08-.067 6.563-.036 1.314.029 2.618.243 3.873.636a13.843 13.843 0 0 1 3.806 1.821 14.515 14.515 0 0 1 3.103 2.834 15.44 15.44 0 0 1 2.069 3.346c.124.289.227.579.336.863.057.145.108.285.16.429l.124.43c.078.289.155.568.233.848.078.279.103.558.15.832.191 1.097.29 2.105.419 3.031.238 1.851.424 3.351.517 4.385a9.16 9.16 0 0 1 .186 1.634ZM165.659 202.213h-.517a16.093 16.093 0 0 0-32.187 0h-.517a16.632 16.632 0 0 1 28.391-11.76 16.632 16.632 0 0 1 4.871 11.76h-.041Z" fill="#455A64"/><path d="M135.157 203.041a2.492 2.492 0 1 1-4.985 0 2.492 2.492 0 0 1 4.985 0ZM168.007 202.694a2.492 2.492 0 1 1-4.985 0 2.492 2.492 0 0 1 4.985 0Z" fill="#263238"/><path d="M165.499 198.107c0 .078-7.24.14-16.161.14-8.921 0-16.166-.062-16.166-.14 0-.077 7.24-.139 16.166-.139s16.161.062 16.161.139Z" fill="#455A64"/><path d="M142.388 80.788c2.058.115 4.122.049 6.169-.196a13.405 13.405 0 0 0 6.309-2.886c1.035-.957 1.309-1.458 1.371-3.465l.165-2.922-2.937-8.026-7.509-.62-6.956 3.18-.63 10.524a4.143 4.143 0 0 0 2.406 4.037c.506.232 1.055.36 1.612.374Z" fill="#263238"/><path d="M155.652 75.451c0 1.195-1.081 2.069-2.069 2.736-.987.667-2.135 1.355-2.43 2.518-.579 2.255 2.353 3.962 2.627 6.273.207 1.686-1.034 3.155-1.815 4.655a9.531 9.531 0 0 0-1.038 4.058 9.53 9.53 0 0 0 .8 4.112c-3.16.275-6.34.549-9.516.668l-2.197-4.303-1.635 4.365a52.832 52.832 0 0 1-8.32-.683c1.634-1.293 1.758-3.697 1.654-5.776-.103-2.08-.517-5.772.88-7.334.956-1.075 2.451-1.551 3.433-2.585 1.423-1.52.745-2.12.047-3.775a11.38 11.38 0 0 1-.714-6.175c.326-2.069 1.614-3.822 2.653-5.637 1.04-1.815 1.097-3.103 1.671-5.616" fill="#263238"/><path d="M139.083 62.673a7.244 7.244 0 0 1-5.56 3.733 4.437 4.437 0 0 0 3.682.517 8.785 8.785 0 0 1-3.573 2.07c.45 1.157 1.826 1.654 3.062 1.742a8.586 8.586 0 0 0 6.107-2.022 7.823 7.823 0 0 0 1.862-8.486" fill="#263238"/><path d="M141.323 62.166a2.834 2.834 0 0 0 2.585-1.764 4.764 4.764 0 0 0 .063-3.268 3.62 3.62 0 0 0-1.733-2.353c-1.091-.517-2.425-.109-3.392.615a5.108 5.108 0 0 0-2.069 3.558 4.1 4.1 0 0 0 1.645 3.703 3.417 3.417 0 0 0 3.961-.072" fill="#263238"/><path d="M134.93 70.228c.829.22 1.681.34 2.539.357a7.83 7.83 0 0 0 2.715-.517 7.169 7.169 0 0 0 4.468-4.753c.27-.887.384-1.814.336-2.74-.067-.857-.241-1.7-.517-2.514 0 0 .041.052.093.16.078.155.147.314.207.476.222.6.36 1.229.408 1.867a7.764 7.764 0 0 1-.289 2.824 7.632 7.632 0 0 1-1.707 3.025 7.514 7.514 0 0 1-2.916 1.888 7.832 7.832 0 0 1-2.798.465 7.018 7.018 0 0 1-1.888-.29 4.4 4.4 0 0 1-.517-.175.52.52 0 0 1-.134-.073Z" fill="#455A64"/><path d="M139.072 67.932a7.365 7.365 0 0 0 3.538-4.618c.029.303-.01.609-.114.895a5.627 5.627 0 0 1-2.586 3.382c-.251.173-.537.29-.838.341ZM137.314 57.843c.04-.147.109-.284.202-.404.241-.342.551-.629.91-.843a3.42 3.42 0 0 1 1.779-.486 3.68 3.68 0 0 1 2.131.75 4.238 4.238 0 0 1 1.386 1.779 4.79 4.79 0 0 1 .346 1.805c.002.411-.048.821-.15 1.22-.026.15-.078.293-.155.424.075-.543.113-1.09.114-1.64a4.9 4.9 0 0 0-.388-1.71 4.01 4.01 0 0 0-1.313-1.66 3.508 3.508 0 0 0-1.971-.72 3.374 3.374 0 0 0-1.68.404 4.024 4.024 0 0 0-1.211 1.08ZM145.056 61.644c.041 0 .398.708 1.086 1.81a8.672 8.672 0 0 0 1.427 1.753 5.065 5.065 0 0 0 2.415 1.23c.912.178 1.838.272 2.767.28.757.051 1.517.032 2.27-.057a5.076 5.076 0 0 0 1.944-.714 1.581 1.581 0 0 1-.439.362 4.269 4.269 0 0 1-1.474.517c-.762.12-1.536.16-2.306.12a14.602 14.602 0 0 1-2.824-.264 5.175 5.175 0 0 1-2.524-1.314 8.321 8.321 0 0 1-1.417-1.83 14.816 14.816 0 0 1-.718-1.381 2.204 2.204 0 0 1-.207-.512Z" fill="#455A64"/><path d="M145.056 61.644c.108.189.204.386.284.59.171.377.429.925.771 1.587.341.662.76 1.453 1.241 2.311a16.427 16.427 0 0 0 1.743 2.669 8.728 8.728 0 0 0 2.404 2.068 6.404 6.404 0 0 0 4.815.652s-.052.036-.155.078c-.15.06-.304.11-.461.15-.583.14-1.187.18-1.784.118a6.645 6.645 0 0 1-2.539-.78 8.726 8.726 0 0 1-2.487-2.069 15.461 15.461 0 0 1-1.753-2.725 44.14 44.14 0 0 1-1.195-2.343 22.108 22.108 0 0 1-.698-1.64 2.458 2.458 0 0 1-.186-.666ZM144.011 60.92c.16-.195.345-.369.548-.518a13.104 13.104 0 0 1 1.67-1.117c.875-.49 1.81-.865 2.783-1.111a8.963 8.963 0 0 1 3.661-.145 7.264 7.264 0 0 1 3.356 1.473 6.497 6.497 0 0 1 1.826 2.38 5.49 5.49 0 0 1 .465 1.965c.012.184.012.369 0 .553 0 .124-.026.186-.036.186a6.577 6.577 0 0 0-.59-2.622 6.435 6.435 0 0 0-1.804-2.265 7.165 7.165 0 0 0-3.243-1.407 8.968 8.968 0 0 0-3.563.124 12.07 12.07 0 0 0-2.746 1.035 16.28 16.28 0 0 0-1.702 1.034c-.197.16-.406.305-.625.434ZM150.579 56.364a9.37 9.37 0 0 0-5.792 3.232c.131-.314.323-.599.564-.838a7.16 7.16 0 0 1 1.903-1.552 7.062 7.062 0 0 1 2.312-.812 2.617 2.617 0 0 1 1.013-.03Z" fill="#455A64"/><path d="M139.631 63.273c.447.081.9.123 1.355.124a3.665 3.665 0 0 0 3.49-4.458 7.416 7.416 0 0 0-.444-1.288c.095.084.176.184.238.295.179.295.312.616.393.952a3.727 3.727 0 0 1-.668 3.26 3.72 3.72 0 0 1-3.009 1.425c-.351.006-.7-.044-1.035-.15a1.037 1.037 0 0 1-.32-.16Z" fill="#EE4248"/><path d="M144.477 100.026a2.068 2.068 0 0 1-.176-.357c-.103-.238-.253-.59-.439-1.034a20.486 20.486 0 0 1-1.221-3.993 10.493 10.493 0 0 1-.129-2.89 7.478 7.478 0 0 1 1.008-3.17c.6-1.004 1.505-1.904 1.748-3.103.243-1.2-.258-2.483-.905-3.62-.32-.585-.677-1.138-1.008-1.712a14.37 14.37 0 0 1-.854-1.748 7.098 7.098 0 0 1-.579-3.62 6.722 6.722 0 0 1 1.412-3.01 10.788 10.788 0 0 0 1.469-2.436 9.245 9.245 0 0 0 .517-2.28c.066-.59.103-1.185.108-1.78v-1.132a1.985 1.985 0 0 1 0-.393c.025.13.037.262.037.393 0 .259.036.642.041 1.133.012.599-.009 1.198-.062 1.794a8.965 8.965 0 0 1-.517 2.338 10.684 10.684 0 0 1-1.464 2.492 6.516 6.516 0 0 0-1.344 2.912c-.117 1.195.08 2.4.574 3.496.242.589.524 1.16.843 1.712.32.563.682 1.122 1.034 1.711a9.01 9.01 0 0 1 .807 1.847 4.04 4.04 0 0 1 .119 1.965 4.78 4.78 0 0 1-.786 1.732c-.342.517-.709.978-1.009 1.464a7.343 7.343 0 0 0-.998 3.061c-.096.946-.064 1.901.093 2.84.255 1.36.634 2.695 1.133 3.986.165.44.295.797.393 1.035.06.118.112.241.155.367Z" fill="#455A64"/><path d="M140.474 70.27a1.339 1.339 0 0 1-.181.284l-.553.791a12.633 12.633 0 0 0-1.644 3.103 6.67 6.67 0 0 0-.352 2.374c.022.444.102.884.238 1.308.157.448.355.88.589 1.293.455.858 1.081 1.779 1.133 2.927a3.219 3.219 0 0 1-.409 1.64 6.099 6.099 0 0 1-1.034 1.375c-.837.725-1.63 1.5-2.374 2.322a4.908 4.908 0 0 0-.982 2.813c-.031.93.034 1.86.191 2.777.134.81.22 1.627.259 2.446a5.63 5.63 0 0 1-.859 3.429c-.184.27-.407.51-.662.714a1.527 1.527 0 0 1-.207.144c-.046.031-.072.047-.077.042.33-.277.619-.599.858-.957a5.627 5.627 0 0 0 .755-3.361c-.05-.812-.147-1.62-.289-2.42a14.139 14.139 0 0 1-.218-2.824 5.116 5.116 0 0 1 1.035-2.963 26.83 26.83 0 0 1 2.384-2.348c.781-.791 1.422-1.774 1.381-2.824-.042-1.05-.626-1.944-1.086-2.813a8.113 8.113 0 0 1-.6-1.34 5.187 5.187 0 0 1-.233-1.37 6.711 6.711 0 0 1 .352-2.467 11.826 11.826 0 0 1 1.742-3.103c.249-.336.45-.59.595-.76.076-.084.159-.162.248-.233Z" fill="#263238"/><path d="M150.17 99.705s-.031 0-.088-.041a2.64 2.64 0 0 1-.248-.155 3.209 3.209 0 0 1-.771-.828 5.458 5.458 0 0 1-.584-4.028 19.4 19.4 0 0 1 .827-2.73c.393-1 .672-2.041.833-3.104a10.02 10.02 0 0 0-.197-3.532 10.918 10.918 0 0 0-1.551-3.48 12.203 12.203 0 0 1-1.712-3.496 11.3 11.3 0 0 1-.248-3.62c.176-2.306.62-4.334.569-6.066a8.805 8.805 0 0 0-.843-3.956 9.996 9.996 0 0 0-.833-1.241c.376.341.689.745.926 1.194a8.563 8.563 0 0 1 .936 4.003c.078 1.753-.347 3.806-.517 6.082a11.162 11.162 0 0 0 .253 3.537 12.05 12.05 0 0 0 1.691 3.423 11.18 11.18 0 0 1 1.552 3.558c.275 1.186.338 2.412.186 3.62a14.597 14.597 0 0 1-.869 3.165 19.795 19.795 0 0 0-.853 2.69 5.442 5.442 0 0 0 .486 3.935c.278.422.637.785 1.055 1.07Z" fill="#455A64"/><path d="m180.346 203.072-.026-.921-8.673.212.057 3.036.517.026c2.385.078 12.133.227 13.71-.29 1.789-.579-5.585-2.063-5.585-2.063Z" fill="#EE4248"/><path opacity=".4" d="M174.832 205.265a2.98 2.98 0 0 0-1.142-1.816 2.91 2.91 0 0 0-2.033-.584l.052 2.415 3.123-.015Z" fill="#fff"/><path opacity=".4" d="M183.95 203.925s2.586.683 2.275 1.112c-.31.429-10.167.652-14.521.362v-.191l11.496-.155s.248-1.097.75-1.128Z" fill="#fff"/><path d="M171.58 205.203h.574l1.552.036c1.323 0 3.154 0 5.171-.026a112.46 112.46 0 0 0 5.171-.197l1.552-.098.429-.036h.145a.627.627 0 0 0-.15 0h-.424l-1.552.067c-1.323.057-3.154.124-5.171.166a258.69 258.69 0 0 1-5.171.051h-1.997a.488.488 0 0 0-.129.037Z" fill="#263238"/><path d="M183.21 205.203c.068-.261.162-.514.28-.755.147-.224.32-.429.517-.611a1.388 1.388 0 0 0-.802 1.366h.005ZM180.635 203.951s.145-.134.269-.336a1.05 1.05 0 0 0 .176-.393s-.145.14-.269.336a1.02 1.02 0 0 0-.176.393ZM179.932 203.599s.155-.072.3-.212c.145-.139.249-.263.228-.284-.021-.021-.155.072-.3.207-.145.134-.248.269-.228.289Z" fill="#263238"/><path d="M179.471 202.793a1.983 1.983 0 0 0-1.48 2.29 1.987 1.987 0 0 0 3.934-.498 1.986 1.986 0 0 0-2.004-1.849.936.936 0 0 0-.45.057ZM179.306 202.219a.818.818 0 0 0 .517.139.879.879 0 0 0 .517-.082 2.976 2.976 0 0 0-.517 0 3.75 3.75 0 0 0-.517-.057Z" fill="#263238"/><path d="M180.915 203.191c.183.037.371.037.553 0a3.07 3.07 0 0 0 .59-.14c.118-.036.23-.087.336-.15a.268.268 0 0 0 .129-.176.21.21 0 0 0-.012-.121.211.211 0 0 0-.076-.096 1.035 1.035 0 0 0-1.251.326 1.01 1.01 0 0 0-.171.372v.15c.049-.173.13-.336.238-.481.125-.146.288-.256.471-.315a.869.869 0 0 1 .662.031c.088.062.057.165-.042.228a1.68 1.68 0 0 1-.305.139 3.51 3.51 0 0 1-.569.16c-.341.052-.553.057-.553.073Z" fill="#263238"/><path d="M181.059 203.217a.57.57 0 0 0 .057-.388 1.04 1.04 0 0 0-.16-.398.55.55 0 0 0-.471-.274.216.216 0 0 0-.134.096.22.22 0 0 0-.031.162.588.588 0 0 0 .098.248c.076.119.167.228.269.326.09.097.201.172.326.217 0 0-.114-.093-.269-.269a1.925 1.925 0 0 1-.243-.325c-.078-.114-.135-.326 0-.352.134-.026.284.119.372.228a.84.84 0 0 1 .16.356c.021.123.029.248.026.373ZM171.704 202.839s.248-.026.636 0a2.7 2.7 0 0 1 2.301 1.753c.14.368.161.616.176.611.016-.006 0-.062 0-.176a2.627 2.627 0 0 0-1.008-1.728 2.677 2.677 0 0 0-1.464-.517 2.218 2.218 0 0 0-.475 0 .481.481 0 0 0-.166.057ZM175.903 204.396c.414.09.839.124 1.262.098.423.013.845-.031 1.257-.129 0-.031-.564 0-1.262.026-.698.025-1.257-.026-1.257.005Z" fill="#263238"/><path d="m174.207 204.432.109.248c.057.13.098.238.124.238.026 0 .046-.14-.026-.284-.073-.145-.186-.223-.207-.202ZM173.571 203.651s.036.109.13.202c.093.093.181.139.201.119.021-.021-.041-.109-.129-.197a.56.56 0 0 0-.202-.124ZM172.635 203.31c0 .031.119.026.249.067.129.041.222.109.243.088.02-.021-.052-.14-.212-.186-.161-.047-.29.005-.28.031ZM171.979 203.134s.041.067.113.093c.073.026.14 0 .15 0 .011 0-.041-.072-.114-.098-.072-.026-.139.005-.149.005ZM168.177 173.605c-.072 0 .186-4.654.579-10.343.393-5.688.771-10.291.843-10.291.073 0-.181 4.628-.574 10.343-.393 5.714-.775 10.296-.848 10.291ZM173.163 174.784a6.105 6.105 0 0 1-.088-.853c-.036-.6-.088-1.381-.155-2.327a288.467 288.467 0 0 0-1.376-15.328c-.103-.947-.196-1.728-.264-2.317a5.038 5.038 0 0 1-.062-.859c.077.277.132.559.166.843.093.543.212 1.329.351 2.307a168.262 168.262 0 0 1 1.386 15.343c.042.983.062 1.779.073 2.333.015.286.004.573-.031.858Z" fill="#263238"/><path opacity=".2" d="M175.252 152.495a23.825 23.825 0 0 1-16.125 11.946c-1.406.28-2.947.409-4.189-.31-1.691-.983-2.213-3.191-2.192-5.146.02-1.954 0-4.623 0-6.49h22.506Z" fill="#000"/><path d="M145.19 119.429c0-.072 2.586-.476 5.782-.895 3.196-.418 5.808-.698 5.813-.625.005.072-2.586.475-5.777.894-3.19.419-5.807.699-5.818.626Z" fill="#263238"/><path d="M153.087 118.472a4.474 4.474 0 0 1-.873-.589l-.88-.698a1.15 1.15 0 0 1-.439-.6.806.806 0 0 1 .284-.776.957.957 0 0 1 .776-.238c.249.045.478.168.652.352.279.301.442.691.46 1.101.044.358.003.721-.119 1.061-.047 0 0-.414-.067-1.035a1.602 1.602 0 0 0-.45-.946.768.768 0 0 0-1.076-.088.56.56 0 0 0-.202.517c.061.188.18.352.342.466l.863.739c.274.212.519.459.729.734Z" fill="#263238"/><path d="M152.74 118.498c.007-.303.091-.6.243-.863.137-.297.311-.575.517-.828a3.56 3.56 0 0 1 .409-.424.965.965 0 0 1 .662-.222.391.391 0 0 1 .341.258.469.469 0 0 1 .026.2.465.465 0 0 1-.057.193 2.298 2.298 0 0 1-.362.481 3.9 3.9 0 0 1-.75.636 1.865 1.865 0 0 1-.817.373c0-.042.285-.192.704-.517.246-.193.473-.41.677-.647.12-.128.224-.27.31-.424.068-.145 0-.264-.103-.279-.331-.026-.621.295-.853.543a4.311 4.311 0 0 0-.554.755c-.248.45-.351.776-.393.765Z" fill="#263238"/><path d="M169.052 175.596a27.75 27.75 0 0 1 1.986-5.089c-.201.89-.492 1.756-.869 2.586a14.232 14.232 0 0 1-1.117 2.503ZM159.924 172.886a7.67 7.67 0 0 1-2.141-1.458 7.735 7.735 0 0 1-1.748-1.914c.057-.051.853.787 1.924 1.712 1.07.926 2.012 1.593 1.965 1.66ZM162.779 161.002a7.24 7.24 0 0 1-1.267-1.551 7.449 7.449 0 0 1-1.034-1.707 7.66 7.66 0 0 1 1.267 1.552 7.729 7.729 0 0 1 1.034 1.706ZM158.186 144.531a10.989 10.989 0 0 1-1.608-1.805 10.717 10.717 0 0 1-1.391-1.97c.599.54 1.137 1.146 1.603 1.805a11.045 11.045 0 0 1 1.396 1.97ZM169.351 142.442c-.787.164-1.59.24-2.395.228-.8.074-1.606.062-2.404-.037.786-.169 1.59-.247 2.394-.232a10.572 10.572 0 0 1 2.405.041ZM171.937 135.75a6.41 6.41 0 0 1-1.034-1.551 6.624 6.624 0 0 1-.797-1.696c.419.464.767.986 1.035 1.551.342.526.61 1.097.796 1.696ZM160.322 134.307a7.176 7.176 0 0 1-1.706.952 7.403 7.403 0 0 1-1.826.708 14.414 14.414 0 0 1 3.532-1.66ZM153.78 134.824a70.993 70.993 0 0 1-4.426-3.314c.839.395 1.626.893 2.342 1.484.769.52 1.47 1.135 2.084 1.83ZM153.185 122.289c.026.078-1.158.517-2.534 1.2-1.375.682-2.42 1.412-2.466 1.344a11.479 11.479 0 0 1 5-2.544ZM150.956 113.058a9.774 9.774 0 0 1-1.717-1.52 10.047 10.047 0 0 1-1.525-1.712c.63.438 1.206.948 1.717 1.52a9.586 9.586 0 0 1 1.525 1.712ZM157.509 106.232a5.91 5.91 0 0 1-1.396 1.096 5.789 5.789 0 0 1-1.551.869 11.612 11.612 0 0 1 2.937-1.965h.01ZM152.218 105.027a8.259 8.259 0 0 1-1.443-1.516 8.051 8.051 0 0 1-1.236-1.691 8.19 8.19 0 0 1 1.443 1.521 8.056 8.056 0 0 1 1.236 1.686ZM160.436 95.139c-.651.433-1.332.82-2.037 1.158-.665.418-1.356.79-2.069 1.117a7.154 7.154 0 0 1 1.934-1.329 7.424 7.424 0 0 1 2.172-.946ZM164.78 101.319a7.356 7.356 0 0 1 .466-1.95c.154-.652.396-1.28.719-1.867a15.066 15.066 0 0 1-1.185 3.817ZM166.719 108.357a5.527 5.527 0 0 1-1.986-.915 5.432 5.432 0 0 1-1.65-1.422c.052-.057.796.558 1.8 1.199 1.003.642 1.861 1.066 1.836 1.138ZM154.897 91.545a11.07 11.07 0 0 1 1.143-2.136c.384-.715.843-1.386 1.371-2.001-.297.755-.68 1.474-1.143 2.14a11.3 11.3 0 0 1-1.371 1.997ZM143.09 102.906a14.975 14.975 0 0 1-2.818-.408 14.518 14.518 0 0 1-2.772-.672c.95.046 1.894.183 2.818.408a14.5 14.5 0 0 1 2.772.672Z" fill="#FAFAFA"/><path d="M218.556 57.062h-38.351v29.042h38.351V57.062Z" fill="#F5F5F5"/><path d="M212.852 63.898h-4.478V81.74h4.478V63.898ZM205.483 62.543h-4.478v19.191h4.478v-19.19ZM198.341 64.922h-4.479v16.813h4.479V64.921Z" fill="#EE4248"/><path opacity=".3" d="M198.341 64.922h-4.479v16.813h4.479V64.921Z" fill="#fff"/><path d="M191.091 67.544h-4.479v14.19h4.479v-14.19ZM212.852 63.898h-4.478V81.74h4.478V63.898Z" fill="#EE4248"/><path d="M216.255 81.802c0 .072-7.364.134-16.45.134-9.087 0-16.446-.062-16.446-.134 0-.073 7.365-.135 16.446-.135 9.081 0 16.45.057 16.45.135ZM214.383 65c0 .03-.517-.062-1.433 0a8.49 8.49 0 0 0-3.697 1.09 7.823 7.823 0 0 0-2.069 1.692c-.641.719-1.215 1.588-1.898 2.456a7.024 7.024 0 0 1-2.647 2.234 9.571 9.571 0 0 1-3.646.72c-1.272.046-2.508 0-3.693.036-1.138.04-2.269.194-3.377.46a10.09 10.09 0 0 0-2.828 1.174 7.35 7.35 0 0 0-1.971 1.784 6.293 6.293 0 0 0-1.329 3.579c.009.477.059.953.15 1.422a3.905 3.905 0 0 1-.258-1.422 6.256 6.256 0 0 1 1.287-3.693 7.317 7.317 0 0 1 2.002-1.856c.892-.557 1.865-.97 2.885-1.226a16.813 16.813 0 0 1 3.429-.486c1.2-.057 2.436 0 3.692-.042a9.407 9.407 0 0 0 3.548-.687 6.916 6.916 0 0 0 2.586-2.152c.677-.848 1.256-1.722 1.918-2.451a8.068 8.068 0 0 1 2.136-1.707 8.338 8.338 0 0 1 3.786-1.034c.357-.008.715.011 1.07.057.12.006.24.023.357.052ZM180.582 69.318a.912.912 0 0 1-.238 0h-3.34l-9.454-.155h-.113V55.164c0-7.427.031-14.15.041-19.041 0-2.42.031-4.386.041-5.772 0-.662 0-1.19.026-1.551v-.409a.41.41 0 0 1 0-.14.467.467 0 0 1 0 .14v1.96c0 1.386.026 3.351.047 5.772 0 4.892 0 11.614.036 19.04V69.05l-.114-.114 9.453.248 2.643.088.693.031c.093-.002.187.003.279.016ZM236.708 47.246a2.41 2.41 0 0 1-.336.026h-.967l-3.563.041-11.755.042h-6.806l.124-.12c0 2.876-.036 5.317-.051 7.08 0 .838-.026 1.516-.037 2.017v.518a.091.091 0 0 1 .072.101.092.092 0 0 1-.154.059.096.096 0 0 1-.031-.06.097.097 0 0 1 .017-.064.093.093 0 0 1 .055-.036v-.518c0-.517 0-1.179-.031-2.016 0-1.764-.031-4.205-.052-7.08v-.124h6.93l11.755.036 3.563.046h.967c.101.007.202.024.3.052ZM180.205 79.133a.724.724 0 0 1-.186 0h-2.617l-7.7-.026-25.402-.19-20.205-.203h-.072l-.031-.067-4.51-10.488-1.246-2.916-.321-.77a1.955 1.955 0 0 1-.093-.27c.05.081.093.166.13.254.082.186.196.44.346.76.3.683.734 1.66 1.288 2.906 1.106 2.524 2.679 6.123 4.576 10.462l-.103-.067 20.21.155 25.397.269 7.7.114 2.095.046h.543a.84.84 0 0 1 .201.031Z" fill="#263238"/><path d="M127.798 78.735a2.352 2.352 0 1 1-4.705 0 2.352 2.352 0 0 1 4.705 0Z" fill="#E0E0E0"/><path d="M119.508 65.201h-14.154a3.59 3.59 0 1 1 0-7.177h14.154a3.589 3.589 0 1 1 0 7.177Z" fill="#455A64"/><path d="M143.886 25.578h-32.968v21.89h32.968v-21.89Z" fill="#F5F5F5"/><path d="M150.836 32.177h-21.891v8.693h21.891v-8.693Z" fill="#EE4248"/><path d="M124.902 32.549a47.799 47.799 0 0 1-5.12.135c-1.709.046-3.42.001-5.125-.135a49.631 49.631 0 0 1 5.125-.135 49.471 49.471 0 0 1 5.12.135ZM124.902 34.137c-1.703.14-3.412.186-5.12.14-1.709.046-3.42 0-5.125-.14a49.61 49.61 0 0 1 5.13-.109 49.482 49.482 0 0 1 5.115.109ZM124.902 35.73a49.416 49.416 0 0 1-5.12.134 49.575 49.575 0 0 1-5.125-.135 47.915 47.915 0 0 1 5.13-.15 47.784 47.784 0 0 1 5.115.15ZM124.902 37.317a49.443 49.443 0 0 1-5.12.135 49.603 49.603 0 0 1-5.125-.135 47.899 47.899 0 0 1 5.125-.134 47.747 47.747 0 0 1 5.12.134ZM124.902 38.905a49.471 49.471 0 0 1-5.12.134 49.631 49.631 0 0 1-5.125-.134 47.951 47.951 0 0 1 5.125-.135 47.799 47.799 0 0 1 5.12.135ZM120.677 40.492c-.998.133-2.005.178-3.01.135a17.203 17.203 0 0 1-3.01-.135c.997-.136 2.005-.18 3.01-.134a16.609 16.609 0 0 1 3.01.134ZM143.622 28.79c0 .077-7.323.134-16.352.134s-16.352-.057-16.352-.135c0-.077 7.318-.134 16.352-.134 9.035 0 16.352.062 16.352.134Z" fill="#E0E0E0"/><path d="M202.891 48.782a2.358 2.358 0 0 1 0-.238v-.667c0-.6 0-1.443-.031-2.503 0-2.162-.031-5.208-.056-8.853l.113.119h-12.261l.134-.135v12.251l-.119-.114 8.854.057 2.503.031h.905a.988.988 0 0 1-.212 0h-.647l-2.477.032-8.926.062h-.113V36.453l.134-.134h12.38v.114l-.062 8.926c0 1.034 0 1.882-.031 2.477v.646a.983.983 0 0 1-.088.3Z" fill="#263238"/><path d="M211.534 31.272H205.4v6.133h6.134v-6.133Z" fill="#E0E0E0"/><path d="M252.849 50.835h-14.155a3.588 3.588 0 0 1-3.589-3.589 3.599 3.599 0 0 1 1.05-2.54 3.587 3.587 0 0 1 2.539-1.049h14.155a3.587 3.587 0 0 1 3.589 3.59 3.587 3.587 0 0 1-3.589 3.589Z" fill="#455A64"/><path d="M213.214 49.646a2.353 2.353 0 1 0 0-4.706 2.353 2.353 0 0 0 0 4.706ZM167.809 71.076a2.353 2.353 0 1 0 0-4.705 2.353 2.353 0 0 0 0 4.705Z" fill="#E0E0E0"/><path d="M174.63 25.2h-14.154a3.59 3.59 0 0 0 0 7.178h14.154a3.589 3.589 0 0 0 0-7.178Z" fill="#455A64"/></svg>